<svg width="470" height="138" viewBox="0 0 470 138" fill="none" xmlns="http://www.w3.org/2000/svg">
<path d="M43.0332 7.50879C42.96 7.50879 41.6172 7.16699 38.9805 6.50781C36.3438 5.82422 32.4619 6.77637 27.3594 9.38867C24.1367 10.6338 21.9395 12.0986 20.792 13.7344L20.8896 14.3691C19.8398 15.6143 19.0586 16.8594 18.5215 18.1533C17.3496 19.5449 15.9824 22.1572 14.4443 25.9902C14.249 27.1865 14.0293 27.9922 13.7852 28.4561C13.7119 29.6768 13.5654 30.2871 13.3701 30.2871C13.2236 31.8496 13.0039 33.0215 12.7109 33.8271C12.7109 33.998 12.7598 34.3887 12.833 35.0234C12.6865 35.5117 12.6133 35.9512 12.6133 36.3174C12.6133 36.5859 12.6377 36.9033 12.7109 37.2695C12.5889 37.5625 12.5156 37.9531 12.5156 38.4658V39.1006L12.3936 39.3203C12.54 39.3203 12.6133 39.5645 12.6133 40.0771V40.2969C12.6133 41.5664 12.5156 42.5674 12.2959 43.2998C12.2959 43.5195 12.3203 43.6172 12.3936 43.6172C12.7109 46.4736 12.9307 48.0117 13.0527 48.2559C13.0527 48.8662 12.9795 49.3301 12.833 49.6475H12.9307C12.9307 51.918 13.1504 53.5293 13.5898 54.4814C13.5898 54.6523 13.5166 55.0918 13.3701 55.7754C13.4922 56.4102 13.6143 56.7275 13.6875 56.7275C13.9316 57.9727 14.2246 58.7051 14.542 58.9004V59.0957L14.3223 59.4375V60.3896C14.3223 60.5605 14.6885 61.6836 15.3965 63.7344C15.7627 66.3955 16.1045 67.7139 16.373 67.7139L17.3496 70.0576C17.5205 70.9854 17.7646 71.6689 18.1064 72.1084C18.4727 74.0859 18.79 75.1602 19.0586 75.3311C19.4248 76.6006 19.6934 77.3818 19.9131 77.6992V78.7734C20.2793 81.1416 20.6211 82.3379 20.8896 82.3379L20.792 83.0703C21.0117 84.0713 21.207 84.7793 21.4268 85.2188L21.3291 85.9756C21.7441 87.709 22.1104 88.8564 22.4033 89.418C22.5742 90.248 22.8672 91.0049 23.2578 91.6885C23.2578 91.8105 23.1846 91.9326 23.0381 92.1035V92.2256C23.1846 92.7383 23.2578 93.0068 23.2578 93.0801V93.2998C23.2578 93.4219 23.1846 93.4951 23.0381 93.4951C23.0381 93.666 23.0869 93.959 23.1602 94.374C23.0869 94.7402 23.0381 94.96 23.0381 95.0088C23.1113 95.3994 23.1602 95.6924 23.1602 95.8633L23.0381 96.083C23.0869 96.083 23.1846 96.376 23.3555 96.9375C23.2822 97.3281 23.2578 97.6455 23.2578 97.9141V98.4512C23.2578 98.7441 23.2822 99.0371 23.3555 99.3057C24.1611 100.404 24.5518 101.161 24.5518 101.576C24.1855 102.602 24.0146 103.31 24.0146 103.725C24.0146 103.822 24.0879 104.213 24.2344 104.896C23.7217 107.362 23.0137 111.83 22.0859 118.349C22.1592 118.471 22.1836 118.593 22.1836 118.764C21.1338 120.937 20.2305 122.548 19.498 123.622H19.1807C18.8145 123.28 18.375 122.743 17.8867 121.986C17.8867 121.547 17.4961 120.546 16.6904 118.983C16.1289 118.983 15.3477 117.396 14.3223 114.247C14.3223 114.076 14.3711 113.954 14.4443 113.832C14.2246 113.222 14.127 112.855 14.127 112.758L12.0762 110.39C10.5381 109.242 9.65918 108.656 9.39062 108.656C6.58301 109.511 4.77637 110.17 4.01953 110.609C2.75 110.609 1.7002 111.244 0.894531 112.538V112.758C0.894531 113.808 1.28516 115.419 2.06641 117.592C2.5791 118.593 2.82324 119.301 2.82324 119.74L4.77637 123.402C5.65527 124.745 6.65625 126.796 7.7793 129.53C8.68262 131.288 9.48828 132.387 10.2451 132.851C11.0508 134.145 11.5879 134.877 11.8564 134.999C12.5156 134.999 13.5898 135.536 15.0791 136.61C16.7637 136.757 18.668 137.074 20.792 137.587H20.8896L24.7715 136.61C27.3838 136.317 29.2637 136 30.3623 135.658C30.5576 135.658 31.2656 135.121 32.5107 134.047C32.7793 133.07 33.585 132.362 34.8789 131.898C35.9775 130.897 36.7344 130.385 37.125 130.385C37.9062 128.358 38.4922 127.138 38.8584 126.723C39.0537 125.746 39.3467 124.989 39.7129 124.477C40.1523 123.524 40.543 122.938 40.8848 122.743C41.2998 121.156 41.6416 120.375 41.959 120.375C41.959 119.252 42.7891 117.812 44.4248 116.078C44.8398 114.687 45.2549 113.979 45.6211 113.93C45.6211 113.075 45.9385 112.416 46.5977 111.903L47.4521 109.73L47.3301 109.096V108.876C47.8428 106.703 48.3066 105.092 48.7461 104.042L48.624 103.407C48.624 102.968 48.7949 102.748 49.1611 102.748C49.3564 102.382 49.6738 101.161 50.1377 99.0859C50.0645 98.9639 50.0156 98.8418 50.0156 98.6709V98.3535C50.3086 97.5967 50.4551 96.8154 50.4551 95.9854V94.0566C50.6992 93.7881 50.8701 93.2998 50.9922 92.6406C50.8457 91.7861 50.7725 91.2979 50.7725 91.1514C50.7725 90.9316 50.9922 90.6631 51.4316 90.3945C51.4316 88.1729 51.1143 86.6836 50.4551 85.9756V85.6582C50.4551 85.292 50.3574 84.877 50.1377 84.3643C50.1377 84.291 50.0645 83.9492 49.918 83.29C49.918 82.8994 49.9912 82.5332 50.1377 82.2158C50.1377 82.0449 49.9912 81.459 49.6982 80.5068C48.9658 79.75 48.4287 78.8711 48.0869 77.9189C45.6699 73.1582 44.0342 70.1064 43.1309 68.7881C42.252 67.4697 41.373 66.0781 40.4697 64.5889C39.8838 63.71 39.5908 63.1973 39.5908 63.0752C38.9561 62.001 38.5166 60.9268 38.2969 59.8525C37.2227 58.0215 36.6855 56.874 36.6855 56.4102C36.6855 55.8486 35.8555 54.1885 34.2197 51.4785C33.585 50.7217 32.877 49.6719 32.0713 48.3535C30.9238 46.9863 30.3623 46.0586 30.3623 45.5459C29.6055 45.0332 28.7266 43.959 27.6768 42.3232C27.3838 39.3203 27.0908 37.1475 26.7979 35.7803L26.9199 34.8037C26.7734 34.5107 26.627 33.998 26.4805 33.29V32.3379C26.4805 32.167 26.5537 31.8252 26.7002 31.3613C26.7002 30.9951 26.627 30.4824 26.4805 29.8721C26.5293 29.0176 26.7002 28.3828 27.0176 27.9189C26.9443 27.7969 26.9199 27.6748 26.9199 27.5039C26.9199 27.1865 27.3838 26.3809 28.3115 25.1357C29.1172 23.2803 29.7275 22.2061 30.1426 21.9131L30.8994 20.1797C31.6562 18.8369 32.1201 18.1533 32.291 18.1533C32.9502 17.2988 33.4141 16.8594 33.6826 16.8594C33.8291 16.8594 34.7324 16.2734 36.3682 15.126H37.125C37.6377 15.126 38.541 15.5654 39.8105 16.4199C40.7383 17.25 41.2021 18.0312 41.2021 18.7881C41.2021 19.1543 41.1777 19.8867 41.1045 20.9365L41.3242 21.6934C41.3242 21.8154 41.251 22.0107 41.1045 22.2305C41.1045 22.7676 41.251 23.5488 41.5439 24.5986V24.6963L41.4219 25.2334C41.4951 25.2334 41.6172 25.3799 41.7393 25.6729L41.6416 26.3076C41.9346 26.9668 42.0811 27.3818 42.0811 27.5039C42.0811 27.8213 42.0078 28.1387 41.8613 28.4561C41.9346 28.4561 41.959 28.5049 41.959 28.5781V29.4326C41.959 29.5791 41.8857 30.2627 41.7393 31.4834V31.5811C41.7393 31.8984 41.8125 32.167 41.959 32.4355C41.8125 32.6797 41.7393 32.8506 41.7393 32.9727C41.7393 33.1436 41.7881 33.4365 41.8613 33.8271C41.6416 34.3398 41.5439 34.7793 41.5439 35.1211C41.5439 35.4873 41.6904 35.8047 41.959 36.0977V36.1953C41.959 36.5127 41.8125 36.8545 41.5439 37.1719C41.5439 38.0752 40.7627 39.4912 39.1758 41.4688V41.7861C39.1758 42.0059 39.4199 42.3721 39.8838 42.8848C40.3721 43.373 42.1299 43.2266 45.1816 42.4453C45.1816 42.2744 45.5723 41.6641 46.3779 40.5654L47.9893 36.5371L47.8672 36C47.8672 35.8779 47.9404 35.8047 48.0869 35.7803C48.5996 34.6572 49.0146 33.29 49.3809 31.6787C49.2344 31.3125 49.1611 31.0439 49.1611 30.8242C49.332 29.8721 49.5518 28.9932 49.8203 28.1387C49.6738 27.8457 49.6006 27.6016 49.6006 27.3818C49.6006 27.2109 49.6982 26.8936 49.918 26.4297C49.6982 25.9414 49.6006 25.624 49.6006 25.4531V24.1592C49.6738 20.8389 49.2344 17.6162 48.3066 14.4912C47.4521 11.9277 46.7441 10.5117 46.1582 10.1943C45.5967 8.75391 45.1816 7.92383 44.8643 7.7041H44.2295C43.7168 7.7041 43.3018 7.63086 43.0332 7.50879ZM71.4756 7.875C71.3535 7.85059 71.1826 7.77734 70.9629 7.65527C70.4014 7.82617 70.1328 7.94824 70.1328 8.02148C68.9854 8.11914 67.667 8.46094 66.1777 9.07129C66.0557 8.99805 65.9336 8.97363 65.7627 8.97363C65.3965 9.29102 64.835 9.58398 64.1025 9.87695C60.709 10.9512 58.8047 11.6104 58.3896 11.8545C56.5586 12.5625 55.582 12.9775 55.46 13.124C53.9951 13.9297 53.2627 14.7598 53.2383 15.5654C53.6045 17.4941 54.0928 18.4707 54.7031 18.4951C55.4111 19.4961 56.168 19.9844 56.9248 20.0088L57.9502 20.0332L58.4629 20.1553C58.4629 20.082 58.5605 20.0576 58.7803 20.0576C60.3428 19.5938 61.1729 19.3496 61.2705 19.3496C61.7588 19.4229 62.0273 19.4717 62.1006 19.4717L62.3936 19.2764C62.6621 19.3008 62.8818 19.9355 63.0771 21.2295C63.0039 21.2295 62.9307 21.4004 62.8574 21.7178L62.9551 21.9131C62.8818 22.4502 62.833 22.8896 62.8086 23.2559V23.3535L62.4912 23.7197C62.4912 23.7441 62.5645 23.8418 62.6865 24.0127V24.208C61.71 31.3125 61.1729 34.877 61.0508 34.877C60.709 37.1475 60.3672 38.7832 60.001 39.7598C60.0742 39.7598 60.0986 39.7842 60.0986 39.8574V39.9551C59.9766 40.0283 59.8789 40.4189 59.7568 41.1025H59.8545C59.8301 41.5664 59.6104 42.1768 59.1953 42.9336C59.1953 43.1045 59.2686 43.2754 59.3906 43.4951C59.0732 44.7402 58.9268 45.5947 58.9023 46.1074L58.8779 46.5713C58.7559 46.8398 58.6338 46.9619 58.5605 46.9619C58.4385 49.916 58.1943 51.3809 57.8281 51.3809C57.8281 51.4053 57.9014 51.5029 58.0234 51.6738V51.8691C57.999 52.4062 57.9258 52.8213 57.7793 53.1143H57.877C57.7549 54.7744 57.6328 55.6045 57.5107 55.6045L57.6084 55.7998C57.6084 55.9951 57.5596 56.2148 57.4863 56.4834C57.5596 56.7275 57.584 56.9717 57.5596 57.2402V57.7285L57.4375 57.9238C57.5107 57.9238 57.584 58.0215 57.6328 58.2168C57.4131 58.6318 57.3154 58.9004 57.3154 58.9736L57.3887 60.3164C57.3887 60.3408 57.3398 60.4873 57.2666 60.707C57.3398 60.707 57.3643 60.8047 57.3643 61V61.0977L57.2422 61.293H57.3643L57.2178 62.2451L57.1445 65.4434C57.1201 65.7607 57.1445 66.2246 57.1934 66.8838C57.1201 66.8838 57.0469 67.0303 56.9736 67.3477C57.0957 67.6162 57.1689 67.8359 57.1689 68.0312C57.1445 68.6904 57.0713 69.1543 56.9248 69.4717C57.0469 69.8135 57.1201 70.1797 57.0957 70.5459L56.998 71.1074C57.0713 71.2295 57.0957 71.3271 57.0713 71.4004C57.0713 71.5469 57.0225 71.9131 56.9492 72.4746C57.0713 72.9873 57.1689 73.5 57.2178 74.0127C57.1445 74.3545 57.0957 74.6719 57.0957 74.9648L57.0713 76.0391C56.9248 76.2344 56.8027 76.4541 56.7295 76.6982C56.998 77.0645 57.1201 77.3574 57.1201 77.5771L57.0713 79.7988C57.0469 80.0674 56.9736 80.3359 56.8271 80.5557C56.9492 80.5557 57.0469 80.8242 57.1201 81.3369C57.0469 81.6787 56.998 81.874 56.998 81.9229C56.998 82.0449 57.0713 82.1182 57.1934 82.1182L57.0713 83.0703L56.9492 87.709L57.0225 88.3682C56.9492 88.3682 56.9248 88.3926 56.9248 88.4658L57.0225 89.1494C56.998 89.833 56.9492 90.3701 56.876 90.7852C56.9248 91.4688 56.9248 92.2012 56.9004 93.0068L56.876 93.7637C56.876 94.2275 56.8027 94.5693 56.6562 94.8379C56.7295 94.96 56.7539 95.082 56.7539 95.2285V95.3018L56.6318 95.4971L56.3389 95.3018C56.3145 95.4727 56.4609 95.6924 56.7295 95.9854L56.7051 96.4736C56.7051 96.498 56.6318 96.5957 56.5098 96.7422L56.4854 97.0352C56.583 97.2305 56.6807 97.3281 56.8027 97.3281C56.6318 97.7432 56.5586 98.1338 56.5586 98.5C56.5586 98.6221 56.6318 98.7686 56.7539 98.9883C56.7539 99.0615 56.6807 99.4277 56.5098 100.038L56.6074 100.697C56.583 100.868 56.5586 101.112 56.4854 101.479C56.5586 101.601 56.583 101.698 56.5586 101.771C56.5586 102.187 56.4365 102.553 56.2168 102.919C56.29 102.919 56.3633 103.09 56.4121 103.407C56.2412 104.652 56.1191 105.751 56.0459 106.752C55.9727 107.729 55.875 108.217 55.7773 108.217C55.8994 108.437 55.9727 108.632 55.9727 108.803L55.9482 109.169C55.9238 109.853 55.875 110.878 55.7773 112.27L55.5576 112.343C55.5576 112.489 55.582 112.611 55.6553 112.733L55.4355 113.222C55.5088 113.222 55.582 113.637 55.6064 114.467L55.3867 114.857C55.3867 114.931 55.4111 115.028 55.4844 115.15L55.2646 115.517C55.2646 115.639 55.3379 115.712 55.46 115.712C55.4355 116.542 55.3623 117.152 55.2158 117.543C55.2646 118.886 55.3379 119.789 55.46 120.253C55.4355 120.473 55.3867 120.766 55.3135 121.107L55.8994 123.061C56.3633 123.695 56.7295 124.257 56.9736 124.721C56.9736 124.916 57.6328 125.526 58.9756 126.527L58.8779 126.698C57.3887 127.064 56.0703 127.504 54.9229 128.041H54.7275L54.2148 127.943C54.2148 128.017 53.7266 128.114 52.75 128.285C52.7012 128.285 52.4326 128.236 51.9443 128.163C51.5049 128.139 51.1875 128.749 50.9678 129.97L50.9434 130.36C51.0898 130.995 51.2119 131.312 51.334 131.337C51.5537 132.021 52.2129 132.655 53.3604 133.217C54.6543 133.534 55.2891 133.754 55.2891 133.852C56.2412 133.998 56.998 134.218 57.5352 134.486L57.9502 134.389L58.5605 134.511C58.6826 134.438 58.8047 134.413 58.8779 134.413C59.5371 134.511 59.9033 134.584 60.001 134.657C60.4404 134.535 60.709 134.462 60.8311 134.389C61.002 134.389 61.124 134.413 61.2461 134.486C61.7832 134.242 62.125 134.12 62.2715 134.12L63.0039 134.145L64.0293 134.071C70.792 133.632 74.9424 132.924 76.4561 131.923C77.2129 131.947 77.9697 131.679 78.7266 131.117L79.6543 131.142C79.6543 130.971 79.8008 130.678 80.0938 130.263C80.6309 130.287 81.3389 129.701 82.1934 128.505C81.9248 128.041 81.7295 127.528 81.6318 126.942L81.4609 125.014L81.3877 124.428V124.232C81.2168 124.232 81.0459 124.062 80.8994 123.744V123.451H80.9971L81.0215 122.401C81.0459 121.767 81.2168 121.156 81.583 120.57C81.4365 119.813 81.29 119.423 81.1191 119.398L81.9492 107.094C81.6562 105.629 81.5098 104.823 81.5098 104.652L81.6074 104.481H81.5098L81.3389 99.6475C81.3389 99.5254 81.4365 99.4521 81.6562 99.4521L81.5586 98.9639L81.4365 83.3877L81.3633 82.8994V82.7041C81.3633 82.46 81.583 79.75 82.0225 74.5986C81.876 74.4033 81.7783 74.3057 81.7051 74.2812C81.9004 73.5732 82.0957 73.2314 82.2666 73.2559C82.2666 73.0605 82.2422 72.9629 82.1689 72.9629C81.7783 72.0352 81.583 71.5469 81.583 71.498V71.4004C81.6074 70.3506 81.8027 69.6182 82.1689 69.2031C82.0957 68.6904 81.998 68.3486 81.876 68.1289L82.2666 61.3906C82.2666 61.1709 82.3643 60.9512 82.584 60.7314L82.0957 60.3164V60.1211L81.1436 45.4482L81.168 44.8623H81.3877L81.29 44.3984L81.4121 43.9102C81.1436 43.7148 80.875 43.1533 80.6309 42.25C80.6309 41.8838 80.7285 41.5664 80.9482 41.2979L80.9727 41.2002C80.9727 41.0781 80.8994 41.0293 80.7529 41.0049C79.459 29.2129 78.751 23.1826 78.6777 22.9141C78.6777 22.792 78.7021 21.9131 78.751 20.2529C78.7998 18.5928 78.9707 17.6162 79.2393 17.3232C80.0938 16.7617 80.5088 16.4199 80.5088 16.2979L81.2168 16.4199C81.4365 16.3223 81.5342 16.2246 81.5342 16.1514C82.1445 16.0537 82.4619 15.834 82.4863 15.4922C84 14.8574 84.9033 14.1006 85.2207 13.2461H85.123C85.123 12.9775 85.2207 12.6602 85.4404 12.2939C85.4648 12.1475 85.4404 12.0254 85.3672 11.9033C85.5137 11.6348 85.5869 11.4395 85.5869 11.3418C85.3916 10.585 85.0742 9.99902 84.6104 9.55957C83.6582 9.14453 83.1699 8.9248 83.1699 8.85156C82.6816 8.90039 80.4111 8.75391 76.3828 8.3877C76.334 8.16797 76.3096 8.02148 76.3096 7.99707L75.7725 8.07031L71.4756 7.875ZM156.827 6.04395C153.971 6.36133 152.335 6.84961 151.944 7.50879L152.042 7.7041L151.456 10.2432C150.992 10.8047 150.65 11.3418 150.479 11.8057L150.284 11.708H150.187L149.991 11.8057C149.796 12.8555 149.527 13.3682 149.21 13.3682C147.574 15.541 146.769 16.8105 146.769 17.1768C146.329 17.6406 145.963 18.2754 145.694 19.0322C145.182 19.3496 144.742 19.9355 144.425 20.79C143.18 22.4746 142.569 23.4512 142.569 23.7197C142.496 23.7197 142.154 24.0127 141.593 24.5986C141.593 25.502 141.227 26.2344 140.519 26.8447C140.519 26.9912 137.882 31.874 132.608 41.4932C132.242 42.4941 131.925 43.1289 131.632 43.4463C129.557 48.4268 127.921 52.5283 126.749 55.751C126.236 56.5566 125.968 57.1914 125.968 57.6064C125.504 58.5342 125.284 59.1445 125.284 59.4619H125.089C124.723 59.0713 124.479 58.876 124.405 58.876C124.112 58.168 123.893 57.8018 123.722 57.8018C123.526 57.0205 123.258 56.459 122.94 56.1416C122.721 55.2383 122.281 54.5547 121.573 54.0908L120.987 52.333L120.792 52.4307H120.499C118.57 47.4746 117.496 45.0088 117.276 45.0088V43.9346C117.276 43.8125 117.179 43.7393 116.983 43.7393L115.812 41.6885L112.198 32.8994H112.296C112.027 32.6309 111.905 32.4111 111.905 32.2158C111.441 32.2158 111.075 31.459 110.831 29.9697L110.929 29.4814C110.709 28.8223 110.465 28.5049 110.245 28.5049V26.9424L110.343 26.4541C110.074 25.7949 109.854 25.4043 109.659 25.2822C109.659 24.9893 109.464 24.4766 109.073 23.7197C108.609 23.4756 108.243 23.1826 107.999 22.8408C106.998 22.499 106.266 22.1084 105.753 21.6689C105.216 21.2051 104.898 20.9854 104.776 20.9854L104.288 19.8623C104.166 19.6914 104.093 19.5693 104.093 19.4717H103.897L103.702 19.5693C103.702 19.3984 103.043 19.2764 101.749 19.1787C100.455 18.373 99.4297 17.8359 98.7217 17.6162C98.3799 16.9814 97.5254 16.7373 96.1826 16.8838C95.4014 17.4697 95.0107 18.251 95.0107 19.2275L95.1084 19.7158C95.0352 20.8389 94.8398 21.9375 94.5225 23.0361C93.8633 26.0635 93.4727 28.0898 93.3506 29.0908V29.2861C93.1553 32.3867 92.96 34.1689 92.7646 34.6572C92.8379 34.6572 92.8623 34.6816 92.8623 34.7549V34.9502C92.8623 35.2676 92.7891 35.4385 92.667 35.4385C92.667 36.1953 92.252 37.9775 91.3975 40.8096C91.3975 40.8828 91.4219 40.9805 91.4951 41.1025L90.8115 43.9346L90.9092 44.5205C90.8359 44.5205 90.7871 44.6182 90.7139 44.8135C90.7139 44.8379 90.7871 45.1064 90.9092 45.5947C90.9092 45.79 90.8115 45.8877 90.6162 45.8877L89.835 52.9189C89.5176 53.627 89.3467 54.0176 89.3467 54.0908C89.4443 54.0908 89.5176 54.3838 89.542 54.9697L89.3467 55.3604L89.4443 55.8486C89.4443 56.1172 89.4199 56.2393 89.3467 56.2393C89.0781 58.6318 88.8828 59.9014 88.7607 60.0479L88.8584 60.4385C88.6631 60.9512 88.5654 61.293 88.5654 61.5127V61.6104C88.5654 61.7324 88.6387 61.8057 88.7607 61.8057C88.7607 62.709 88.6631 63.1729 88.4678 63.1729C88.541 63.832 88.5654 64.3203 88.5654 64.6377V64.7354C88.5654 64.8574 88.4922 64.9307 88.3701 64.9307L88.4678 65.4189C88.4678 65.834 88.3945 66.3711 88.2725 67.0791C88.3457 67.0791 88.3701 67.1768 88.3701 67.3721L88.0771 67.8604C88.1504 67.9824 88.1748 68.1045 88.1748 68.251V68.6416C88.1748 68.7637 88.1504 69.1055 88.0771 69.6182L87.2959 83.6807L87.1006 83.9736V84.0713L87.2959 84.3643V84.5596C87.2959 84.6816 87.2227 84.7549 87.1006 84.7549C87.1006 85.1699 87.1738 85.8291 87.2959 86.708L87.1006 86.8057L87.1982 87.001C87.1982 87.1475 87.1738 87.2695 87.1006 87.3916C87.2227 87.6846 87.2959 88.0996 87.2959 88.6611L87.1006 88.9541C87.1006 89.0762 87.1738 89.1494 87.2959 89.1494C87.2715 90.0039 87.1738 90.4189 87.0029 90.4189C87.0029 90.5898 87.0762 90.7852 87.1982 91.0049L86.8076 99.7939C86.8076 99.8184 86.7344 99.916 86.6123 100.087V100.38C86.6123 100.648 86.6855 100.917 86.8076 101.161C86.6855 102.016 86.6123 102.602 86.6123 102.919L86.71 104.481C86.4414 105.36 86.3193 105.922 86.3193 106.142C86.3926 106.142 86.4902 106.166 86.6123 106.239C86.6123 106.41 86.5391 106.825 86.417 107.509C86.417 107.582 86.4414 107.68 86.5146 107.802C86.4414 109.169 86.2949 109.853 86.124 109.853L86.3193 111.61C86.2461 112.172 86.2217 112.66 86.2217 113.075V114.442C86.2217 115.175 86.2461 116.127 86.3193 117.274C86.2461 117.396 86.2217 117.494 86.2217 117.567C86.2217 117.641 86.2461 117.665 86.3193 117.665C86.5879 120.521 86.7832 121.962 86.9053 121.962C87.5156 123.524 87.9062 124.33 88.0771 124.403C88.1992 124.745 88.5654 125.16 89.1514 125.673C89.9814 125.746 91.4219 126.43 93.4482 127.724C94.1562 127.895 94.5225 128.017 94.5225 128.114L95.1084 128.017C95.2549 128.017 95.377 128.041 95.499 128.114L96.085 128.017H96.3779L96.5732 128.114C96.8906 127.553 97.2812 127.113 97.7451 126.747C98.5996 126.747 99.4785 125.868 100.382 124.11C101.163 123.646 101.554 123.207 101.554 122.841C102.213 122.67 102.53 122.475 102.53 122.255C102.994 122.011 103.214 121.425 103.214 120.497C103.678 119.936 103.897 119.252 103.897 118.446C103.775 118.422 103.678 118.202 103.604 117.763V117.665C104.703 116.957 105.265 116.298 105.265 115.712V115.224C105.265 114.687 105.362 113.783 105.558 112.489L105.362 111.806V111.415C105.558 110.707 106.095 109.096 106.998 106.581C107.901 104.066 108.927 99.1348 110.05 91.7861C110.709 88.3926 111.026 86.4883 111.026 86.1221H111.222L111.026 85.5361V85.4385L111.612 83.1924H111.515C111.515 83.1191 111.539 83.0947 111.612 83.0947C111.612 82.9727 111.539 82.7773 111.417 82.5088C111.563 81.8008 111.881 81.2393 112.394 80.8486V80.2627C112.491 80.2627 112.711 80.0674 113.077 79.6768C113.077 79.5303 113.053 79.4082 112.979 79.2861C112.979 79.2129 113.004 79.1885 113.077 79.1885C113.541 75.5996 113.932 74.7207 114.298 76.5518C115.104 77.9922 115.787 79.2861 116.3 80.458C116.764 81.3369 116.983 81.8984 116.983 82.1182C117.374 82.1182 117.569 82.6309 117.569 83.6807L117.765 83.583H117.862C117.936 83.6074 118.229 83.998 118.741 84.7549C118.961 85.3408 119.156 85.6338 119.327 85.6338L122.55 89.3447C123.062 90.0039 123.478 90.3213 123.819 90.3213L124.112 90.126H124.21C124.332 90.126 124.43 90.2969 124.503 90.6143C124.576 90.6143 124.601 90.5898 124.601 90.5166C124.918 90.5166 125.113 90.6143 125.187 90.8096C125.699 90.834 125.968 90.9805 125.968 91.2002H126.065L126.261 91.1025L126.456 91.2979C127.237 91.6396 127.628 91.8594 127.628 91.9814C127.506 91.9814 127.457 92.0547 127.433 92.1768C127.433 92.2988 127.506 92.3721 127.628 92.3721C127.628 92.1768 127.701 92.0791 127.823 92.0791H127.921C128.043 92.0791 128.116 92.1523 128.116 92.2744C128.263 92.2744 128.385 92.25 128.507 92.1768C128.873 92.3721 129.142 92.4697 129.288 92.4697C129.41 92.4697 129.801 92.3965 130.46 92.2744C130.582 92.3477 130.68 92.3721 130.753 92.3721C130.973 91.9814 131.095 91.7861 131.144 91.7861C131.534 91.6152 131.729 91.2979 131.729 90.8096C132.486 90.3457 132.926 90.0283 132.999 89.833V88.7588C132.999 88.5635 133.121 88.2705 133.39 87.8799C133.39 87.709 133.365 87.4648 133.292 87.0986L133.683 86.6104V86.415C133.683 86.1465 133.365 85.6094 132.706 84.7549L132.804 84.3643C132.804 84.0713 132.779 83.876 132.706 83.7783C132.535 82.4844 132.047 81.2881 131.241 80.165C131.559 79.6035 131.729 79.2129 131.729 78.9932C132.047 78.627 132.535 77.9189 133.194 76.8447C133.438 76.1855 134.024 75.4043 134.952 74.501C135.367 73.5488 135.807 73.0361 136.222 72.9385L136.808 72.0596C137.174 71.376 137.662 70.6924 138.272 70.0088C138.883 68.9102 139.322 68.3486 139.542 68.3486C140.25 67.2012 140.836 66.3711 141.3 65.9072C141.764 64.8574 142.203 64.3447 142.569 64.3447C143.033 63.1729 143.424 62.5869 143.741 62.5869L144.815 60.1455C145.23 58.6562 145.621 57.8994 145.987 57.8994C146.109 56.8496 146.256 56.3369 146.476 56.3369C146.695 55.2383 146.988 54.457 147.354 53.9932C147.623 53.0898 147.818 52.626 147.94 52.626C148.258 51.4785 148.478 50.8682 148.624 50.7705L151.065 46.6689L150.772 49.9893V50.5752L150.675 50.7705H150.772L150.284 54.3838C150.284 54.4082 150.309 54.5547 150.382 54.7744C150.309 55.2871 150.162 55.5557 149.991 55.5557L150.089 56.1416C150.016 58.4854 149.869 59.6572 149.698 59.6572H149.796C149.649 62.123 149.527 63.3682 149.405 63.3682C149.479 63.4902 149.503 63.5879 149.503 63.6611C149.503 63.832 149.43 64.0273 149.308 64.2471H149.405C149.332 65.2236 149.308 65.9316 149.308 66.3955V66.7861L149.21 67.4697C149.283 67.4697 149.308 67.4941 149.308 67.5674C149.161 69.2031 149.039 70.2773 148.917 70.79C148.99 71.1562 149.015 71.4492 149.015 71.6689V74.1104L148.917 74.3057C148.99 74.3057 149.015 74.3301 149.015 74.4033V74.7939C149.015 75.209 149.039 75.6484 149.112 76.0635L149.015 76.5518L149.112 77.4307C149.112 77.8457 148.941 78.2119 148.624 78.5049V78.7002C149.015 78.8711 149.21 79.1641 149.21 79.5791C149.21 79.7744 149.137 79.8721 149.015 79.8721L149.308 83.9736C149.234 84.7305 149.137 85.1943 149.015 85.3408C149.015 85.4629 149.088 85.6094 149.21 85.8291C149.21 85.9756 149.186 86.0977 149.112 86.2197L149.21 86.415C148.551 92.2256 148.233 95.4727 148.233 96.1807V96.4736C148.233 96.7422 148.307 97.0107 148.429 97.2549C148.429 97.3281 148.404 97.4258 148.331 97.5479C148.453 98.085 148.551 99.4766 148.624 101.747L148.526 102.235L148.722 102.724C148.648 103.871 148.551 104.774 148.429 105.458L148.526 105.653C148.453 106.166 148.355 106.654 148.233 107.118C148.233 107.411 148.258 107.606 148.331 107.704C148.209 109.145 148.111 109.926 148.038 110.048C148.111 110.048 148.136 110.072 148.136 110.146V110.634C148.136 110.854 148.16 111.146 148.233 111.513C148.16 111.635 148.136 111.757 148.136 111.903H148.038L147.745 111.708C147.745 111.903 147.818 112.123 147.94 112.392L147.843 112.88C147.843 113.002 147.94 113.075 148.136 113.075L148.038 113.563V115.224H148.233V116.103C148.233 116.127 148.16 116.225 148.038 116.396V116.493C148.233 116.493 148.331 116.566 148.331 116.688L148.917 121.376L148.722 121.669V121.767H148.917V122.841L148.819 123.329C148.941 123.402 149.039 123.427 149.112 123.427V123.622L149.015 124.11C149.283 124.11 149.405 124.281 149.405 124.599C149.283 125.062 149.21 125.307 149.21 125.38C149.332 125.38 149.405 125.404 149.405 125.478L150.382 126.942C150.382 127.382 150.943 127.943 152.042 128.603C153.019 128.969 153.507 129.262 153.507 129.481C153.629 129.481 153.702 129.359 153.702 129.091H154.19L154.874 129.188C154.874 129.115 154.972 129.066 155.167 128.993C155.387 128.993 155.826 129.384 156.534 130.165V129.677C156.754 129.677 157.047 129.652 157.413 129.579C157.657 129.701 157.828 129.896 157.901 130.165H157.804L157.901 130.36C158.316 129.994 158.536 129.799 158.585 129.774H158.683C158.805 129.774 158.878 129.848 158.878 129.97C159.073 129.97 159.293 129.896 159.562 129.774L160.05 129.872L160.44 129.774C160.465 129.774 160.611 129.799 160.831 129.872L160.929 129.677L161.319 130.263C161.319 129.872 161.417 129.677 161.612 129.677L164.322 128.944H164.42C165.323 126.918 165.86 125.917 165.982 125.917C166.52 125.917 166.935 125.233 167.252 123.866C167.252 123.695 167.179 123.5 167.057 123.28C167.13 122.719 167.154 122.377 167.154 122.304C167.423 121.815 167.618 121.229 167.74 120.546C167.667 120.546 167.643 120.521 167.643 120.448V120.058L167.936 118.69C168.497 93.3242 168.912 80.6533 169.229 80.6533C169.547 80.3359 169.718 79.457 169.718 78.0166C170.035 76.8447 170.426 76.2588 170.89 76.2588C171.085 74.8184 171.402 73.3047 171.866 71.6689C171.744 71.6689 171.695 71.5957 171.671 71.4736V71.1807C171.744 71.1807 171.842 71.1562 171.964 71.083L171.866 70.5947C171.866 70.5215 171.939 70.2773 172.062 69.8135C171.793 69.4473 171.671 69.1055 171.671 68.7393C171.671 68.5439 171.769 68.4463 171.964 68.4463C171.964 68.373 171.939 68.1289 171.866 67.665V67.3721C171.891 65.8584 172.086 63.7832 172.403 61.1221C172.721 58.4609 173.038 57.1182 173.331 57.1182C173.331 56.3369 173.233 55.4824 173.038 54.5791L173.331 53.9932C173.331 53.4805 173.209 52.9922 172.94 52.5283V52.1377C172.94 52.0645 173.038 51.4053 173.233 50.1846V50.0869L172.94 49.6963V49.3057C172.94 49.2324 173.014 48.9883 173.136 48.5244V48.2314C172.94 47.377 172.843 46.3516 172.843 45.1064V45.0088L172.647 30.751C172.525 29.9697 172.379 29.4814 172.257 29.2861C172.257 29.1152 172.33 28.9199 172.452 28.7002L172.354 28.3096C172.354 28.1631 172.379 28.041 172.452 27.9189C172.379 27.333 172.33 27.04 172.257 27.04C172.257 25.9414 171.769 24.8672 170.792 23.8174V22.8408C170.792 22.3525 170.89 22.084 171.085 22.0596C171.036 21.8887 170.963 21.498 170.89 20.8877C171.012 20.8877 171.085 20.7168 171.085 20.3994C171.012 20.1797 170.89 20.0576 170.694 20.0088C170.694 19.6914 170.719 19.374 170.792 19.0322L170.401 17.958C169.986 17.5918 169.449 16.4688 168.741 14.54C168.229 13.9785 167.936 13.5879 167.862 13.3682C167.35 12.6113 167.081 12.001 167.081 11.5127V11.0244C166.422 10.6582 166.104 10.3164 166.104 9.9502C163.688 7.19141 160.587 5.89746 156.827 6.04395ZM167.569 10.4385C167.374 10.5361 167.276 10.6338 167.276 10.7314V10.9268H167.472C167.472 10.7803 167.496 10.6582 167.569 10.5361V10.4385ZM170.792 18.1533C170.792 18.2754 170.865 18.3486 170.987 18.3486V18.0557L170.792 18.1533ZM144.034 20.8877H144.229V20.6924H144.034V20.8877ZM89.4443 51.7471C89.542 52.0156 89.6396 52.1377 89.7373 52.1377H89.835C89.7373 51.8691 89.6396 51.7471 89.542 51.7471H89.4443ZM123.526 56.3369H123.722C123.722 56.2148 123.648 56.166 123.526 56.1416V56.3369ZM85.7334 103.017H85.8311V102.821H85.7334V103.017ZM147.647 115.81C147.647 115.883 147.623 115.98 147.55 116.103V116.2H147.647C147.77 116.2 147.843 116.127 147.843 116.005V115.81H147.647ZM147.159 122.255H147.452C147.452 122.133 147.379 122.084 147.257 122.06H147.159V122.255ZM168.131 125.429C168.009 125.429 167.96 125.502 167.936 125.624H168.131V125.429ZM234.757 0.0869141C233.072 0.0869141 230.802 0.941406 227.945 2.6748C226.603 3.74902 225.846 4.28613 225.675 4.28613C223.062 6.04395 221.646 6.92285 221.451 6.92285C220.304 7.97266 219.205 8.87598 218.155 9.63281C216.764 11.2686 214.493 14.0518 211.344 18.0312C210.538 19.3984 209.513 20.7412 208.268 22.0352C207.315 22.4746 206.656 22.9629 206.314 23.5244L205.167 24.7695C204.508 26.21 203.507 27.626 202.213 28.9688C202.213 29.0664 201.383 30.2139 199.723 32.4111H199.625C199.381 32.4111 199.234 32.0938 199.161 31.4834C199.161 31.4102 199.234 31.0928 199.405 30.5801V28.8711C198.917 26.1367 198.575 24.7695 198.355 24.7695V24.3057L198.478 24.0859C197.843 22.9629 197.354 21.9863 197.013 21.1318C196.085 20.4482 195.23 19.6914 194.474 18.8613C192.032 17.6162 190.787 16.835 190.738 16.5664C189.908 15.8828 187.467 14.9062 183.414 13.6123L181.925 14.2959C180.777 14.2959 180.143 16.2002 179.996 20.0088V20.3262C179.825 20.3262 179.654 21.2295 179.435 23.0605V23.3779C179.435 23.5977 179.508 23.8418 179.63 24.0859C179.63 24.4033 179.435 25.3311 179.068 26.918H179.215C179.215 27.2842 179.166 27.8701 179.068 28.627C179.068 30.0674 179.19 31.5078 179.435 32.9727L179.215 33.5342C179.288 34.6816 179.41 35.3652 179.532 35.585C179.386 35.8535 179.312 36.1465 179.312 36.4883V38.0752C179.312 38.2949 179.386 38.5146 179.532 38.7588C179.532 38.832 179.508 38.8809 179.435 38.8809C179.117 41.6396 178.678 45.7412 178.165 51.1367C177.652 56.5322 177.384 59.3643 177.384 59.584C177.384 60.8779 177.53 61.9033 177.823 62.6602C177.53 62.9531 177.384 63.9053 177.384 65.5166V65.7363C177.188 65.9805 177.042 66.3223 176.92 66.7617C176.993 67.543 177.042 68.1533 177.042 68.5684V68.6904C177.042 69.0078 176.969 69.3008 176.822 69.5693C176.896 69.9844 176.92 70.3506 176.92 70.6191V71.5469C176.92 71.8643 176.847 72.1572 176.676 72.4258H176.822C176.822 72.5967 176.773 72.7676 176.676 72.8896L176.822 73.915C176.651 74.7207 176.505 76.1611 176.358 78.2363V78.6025C176.358 79.2617 176.383 79.9209 176.456 80.6289L176.358 81.3125C176.432 81.7031 176.456 81.9229 176.456 81.9961C176.456 82.0693 176.432 82.1914 176.358 82.3379L176.456 83.0215C176.383 84.8525 176.358 86.293 176.358 87.3428L176.456 88.71C176.358 88.9541 176.212 90.1992 175.992 92.4697H176.114C176.114 92.8848 176.065 93.2998 175.992 93.7148C176.065 94.2764 176.114 94.9355 176.114 95.668L175.992 96.4492C176.065 96.4492 176.163 96.6445 176.236 97.0107C176.163 98.0605 176.041 98.8662 175.895 99.4033C175.968 100.502 175.992 101.112 175.992 101.234C175.919 101.625 175.895 101.845 175.895 101.894C175.968 101.991 175.992 102.26 175.992 102.699V102.821L175.895 103.041C175.968 103.041 175.992 103.09 175.992 103.163V103.261C175.992 104.652 176.114 105.678 176.358 106.361C176.358 106.483 176.285 106.679 176.114 106.923L176.236 108.046L176.114 108.29C176.188 108.29 176.31 108.437 176.456 108.754C176.456 108.974 176.334 109.267 176.114 109.633C176.334 110.438 176.505 111.513 176.676 112.831V114.418C177.921 119.813 179.02 123.012 179.996 123.964C181.583 126.552 182.95 127.846 184.098 127.846H184.317L184.659 127.626H187.784C188.248 128.163 188.932 128.578 189.811 128.871C191.031 129.726 191.886 130.141 192.35 130.141L192.911 130.019C194.181 129.701 195.353 128.48 196.451 126.356C197.013 126.356 197.477 125.404 197.794 123.524V122.401C198.771 121.693 199.259 120.863 199.259 119.862L200.284 116.908C200.211 116.908 200.138 116.762 200.064 116.469C200.284 116.103 200.455 115.614 200.528 114.979C200.455 114.564 200.406 114.271 200.406 114.101L200.528 113.417C200.455 113.417 200.406 113.295 200.406 113.051V112.953L201.212 111.562C201.212 111.366 200.992 111.073 200.528 110.683V110.316C200.748 109.657 200.943 106.581 201.09 101.112C201.09 100.966 201.017 100.771 200.87 100.551C201.236 99.3057 201.456 98.2803 201.529 97.4746C201.505 97.4502 201.285 96.7666 200.87 95.4238C200.943 94.9111 200.968 94.4961 200.968 94.1787V92.9336C200.968 92.6895 201.09 92.3721 201.334 92.0059C201.7 92.0059 202.872 93.2266 204.85 95.668C205.436 97.6455 206.241 98.6221 207.242 98.6221H207.34C207.657 98.4268 207.804 98.2803 207.804 98.1582C208.756 98.2314 209.244 98.2559 209.269 98.2559C210.416 97.9873 211.148 97.8408 211.441 97.8164C211.612 97.8164 212.54 97.0107 214.2 95.4238L216.446 92.7139C218.082 90.1504 218.961 88.4658 219.083 87.6846C219.4 87.5381 220.133 86.5859 221.256 84.8281C222.232 83.7783 222.721 83.0947 222.721 82.8018C226.334 78.9932 228.385 77.0889 228.849 77.0889C230.069 75.8682 231.632 74.4766 233.512 72.8896C234.22 72.9141 235.416 72.7188 237.076 72.2793C237.247 71.7178 237.516 71.4492 237.857 71.4492C239.298 71.0342 240.958 71.4492 242.813 72.7188C244.669 73.9639 244.669 76.625 242.789 80.6533C242.179 82.2891 241.227 84.1445 239.933 86.2197L237.345 90.0771C234.366 94.8135 232.486 97.5479 231.705 98.2559C229.874 99.8428 228.971 100.673 228.971 100.771L226.7 103.261C225.626 103.676 224.723 104.335 223.966 105.214C222.745 105.409 222.135 105.702 222.135 106.117C221.866 106.801 221.231 107.143 220.206 107.143C219.254 107.655 218.668 107.924 218.497 107.924C217.887 108.827 217.374 109.462 217.008 109.877C215.567 110.585 214.859 111.195 214.859 111.708C213.102 112.172 212.223 112.514 212.223 112.709C208.487 113.417 206.437 114.027 206.095 114.516L204.752 114.418C204.581 114.418 204.508 114.442 204.508 114.516C203.214 114.735 202.579 115.028 202.579 115.346V116.029C202.579 116.298 202.53 116.64 202.457 117.055L202.677 117.616L202.579 118.397C202.579 118.495 202.848 119.228 203.36 120.57C204.337 120.985 205.069 121.522 205.533 122.157C205.533 122.572 206.363 123.012 208.023 123.524C208.536 124.208 209.049 124.55 209.513 124.55C210.807 126.063 211.661 126.82 212.027 126.82C212.711 127.895 213.468 128.432 214.298 128.432H214.396L214.981 128.31C215.055 128.48 215.445 128.676 216.104 128.871C216.227 128.798 216.397 128.749 216.568 128.749H216.788V128.871L218.839 130.238C219.254 129.921 219.571 129.774 219.742 129.774L222.599 128.871L226.798 127.284C227.066 127.284 227.433 127.309 227.848 127.382H227.945C229.215 127.04 231.607 124.892 235.123 120.912C236.71 119.569 237.491 118.471 237.491 117.616C237.955 115.541 238.321 114.516 238.639 114.516C239.762 112.294 240.909 110.365 242.057 108.754C242.057 108.51 242.521 108.119 243.424 107.606C243.985 106.264 244.718 105.385 245.597 104.97C246.256 103.627 246.622 102.943 246.72 102.943C247.208 101.796 247.745 100.917 248.307 100.307C248.868 99.3057 249.576 98.2803 250.479 97.2305C250.479 96.6201 251.041 95.8633 252.188 94.96C252.408 93.5195 252.628 92.7383 252.872 92.5674C253.58 92.5674 254.166 91.6885 254.581 89.9551C255.24 89.2471 255.729 88.5635 256.046 87.9043C256.217 86.5371 256.437 85.8535 256.754 85.8535C257.511 84.999 257.999 83.876 258.219 82.4355C258.707 82.4355 259.122 81.5322 259.464 79.7256C260.147 77.8945 260.562 76.6006 260.709 75.8438C260.636 75.8438 260.587 75.8193 260.587 75.7461C260.587 75.3555 260.709 75.1357 260.953 75.0625L261.856 70.9609L261.734 70.1553C262.052 69.3008 262.198 68.7393 262.198 68.4707C262.198 67.1768 261.93 65.7119 261.393 64.0273C261.393 63.7832 261.466 63.5146 261.637 63.2217C259.732 60.7803 257.975 58.998 256.388 57.875C255.094 57.0449 252.628 56.0684 248.99 54.9209C246.988 54.5547 245.768 54.2617 245.353 53.9932C244.205 53.7979 243.644 53.6514 243.644 53.5537C241.593 52.9922 240.567 52.5283 240.567 52.1865V52.0645C240.567 51.8691 240.909 51.0391 241.593 49.5742C241.935 48.5244 242.325 47.9385 242.74 47.7676C242.887 46.7178 243.619 45.082 244.913 42.8604C245.646 41.1758 246.28 39.833 246.842 38.8809C246.769 38.4902 246.72 38.2461 246.72 38.1729C246.72 37.2451 247.062 36.5371 247.721 36.0488C248.062 34.7061 248.453 33.5098 248.868 32.5088C248.795 32.5088 248.771 32.4844 248.771 32.4111V31.9473C248.771 31.8252 248.844 31.7275 248.99 31.7031C249.43 30.3115 249.723 29.5059 249.894 29.3105L250.699 25.7705C251.065 24.4277 251.334 23.2314 251.505 22.1328L251.358 21.9131C251.358 21.3516 251.627 20.5215 252.188 19.4229V19.3008C252.188 17.9092 252.53 16.2246 253.214 14.1982C253.116 13.3926 253.067 12.9531 253.067 12.8311C253.067 12.6846 253.141 12.4893 253.312 12.2695L253.214 11.4395C253.214 11.3662 253.238 11.2686 253.312 11.1221C252.774 9.4375 252.311 8.55859 251.944 8.48535C251.188 7.16699 250.406 6.11719 249.552 5.31152C245.108 2.89453 242.35 1.67383 241.251 1.67383C238.126 0.624023 236.295 0.0869141 235.782 0.0869141H234.757ZM214.811 45.7412C215.006 45.7412 215.226 45.4971 215.445 45.0088C217.472 42.1768 218.546 40.3701 218.668 39.6133C219.156 38.9541 219.4 38.4902 219.4 38.2705C220.157 37.123 220.548 36.4639 220.548 36.293C221.524 35.1455 222.013 34.291 222.013 33.7783C222.428 33.583 222.892 33.168 223.355 32.5332C224.039 31.2637 224.527 30.5312 224.796 30.3359C225.699 29.0908 226.188 28.4561 226.261 28.4561C226.993 27.2842 227.53 26.6006 227.848 26.4053C228.287 25.624 230.167 23.6465 233.463 20.4482C233.463 19.6182 233.829 19.2031 234.537 19.2275C234.781 19.2275 235.831 18.6416 237.687 17.4697H238.102C238.272 17.4697 238.419 17.7139 238.517 18.1777C238.517 20.1797 238.248 22.5234 237.711 25.2334C237.296 27.333 236.979 28.3828 236.808 28.3828C236.148 29.9209 235.587 30.9707 235.123 31.5078C234.732 32.6797 234.244 33.6807 233.683 34.5107L232.511 36.8057C231.754 38.002 230.948 39.3936 230.118 40.9805C228.971 42.7627 228.067 44.3496 227.408 45.7412C225.675 48.4023 223.746 51.4541 221.671 54.9209C220.133 57.1426 219.059 58.8516 218.448 60.0234C217.203 61.6104 216.568 62.4893 216.568 62.6357C215.128 64.2471 214.396 65.1992 214.396 65.4678C213.077 66.835 212.418 67.5918 212.418 67.7383C211.441 68.7881 210.953 69.5205 210.953 69.9355C210.953 69.9844 210.538 70.375 209.708 71.083C206.485 74.6475 204.41 77.0645 203.458 78.3584H203.263C203.263 77.0889 203.629 75.502 204.386 73.5732C204.728 72.6699 204.972 71.8154 205.118 70.9609L205.021 70.0088C205.021 69.667 205.118 69.4717 205.338 69.3984C205.558 68.4219 205.924 67.7871 206.485 67.5186C206.729 66.2002 207.071 64.9795 207.511 63.8809C208.829 61.6592 209.488 60.0967 209.488 59.1934C209.903 58.4854 210.392 57.3867 210.953 55.873L210.855 55.2139V55.043C210.855 54.9209 210.929 54.8477 211.075 54.8232C211.393 53.8223 211.808 53.1875 212.32 52.9434C212.418 52.2354 212.735 51.4541 213.248 50.5508L213.15 50.1113C213.321 49.8428 213.443 49.7207 213.565 49.7207C213.98 48.2559 214.396 47.084 214.811 46.1807V45.7412ZM292.984 11.8789C290.958 12.1963 289.957 12.416 289.957 12.5625L289.469 12.4648L288.883 12.7578V12.6602C288.736 12.6602 288.419 12.7822 287.906 13.0508C287.906 12.9775 287.882 12.9531 287.809 12.9531H287.613C287.247 13.3438 287.052 13.5391 287.027 13.5391H286.93L286.734 13.4414V13.5391L286.246 13.4414C286.173 13.4414 286.148 13.5146 286.148 13.6367L285.27 14.3203C284.415 14.5156 284 14.6865 284 14.8086C283.463 14.8086 282.975 15.1748 282.535 15.8828C281.095 17.3232 280.313 18.0312 280.191 18.0312C280.143 18.3486 280.045 18.5195 279.898 18.5195C279.361 19.8135 278.849 20.4727 278.336 20.4727L278.434 20.668C278.434 20.8389 278.043 21.6689 277.262 23.1094C276.261 25.1846 275.699 26.2344 275.602 26.2344C275.333 27.5283 275.016 28.1875 274.625 28.1875L274.723 28.3828V28.5781C274.723 28.7002 274.649 28.7734 274.527 28.7734C274.063 30.7021 273.697 31.7764 273.453 31.9961C273.282 32.8018 273.062 33.3877 272.77 33.7539V34.3398C271.988 37.0742 271.5 38.6367 271.305 39.0273C271.134 40.2725 270.987 40.8828 270.816 40.8828C270.816 40.9561 270.841 41.0537 270.914 41.1758C270.914 41.3711 270.841 41.5908 270.719 41.8594L270.816 42.0547C270.401 44.1299 270.157 45.1797 270.035 45.1797C269.498 48.5488 268.888 51.2832 268.18 53.3828V53.4805L268.277 53.9688H268.082C268.082 54.042 268.106 54.0664 268.18 54.0664C268.18 54.2373 268.033 55.2383 267.716 57.0693C267.423 58.9004 267.179 59.9258 267.008 60.1211L267.105 60.6094C266.983 61.0732 266.837 61.293 266.715 61.293L266.812 61.8789C266.812 62.001 266.788 62.0742 266.715 62.0742C266.544 63.7588 266.349 64.6133 266.129 64.6133V64.7109L266.324 65.0039V65.1016C266.153 67.0303 266.007 68.0557 265.836 68.2266V68.7148L265.934 69.3008C265.812 69.667 265.714 70.1064 265.641 70.668C265.714 70.79 265.738 70.8877 265.738 70.9609C265.641 71.2295 265.543 71.3516 265.445 71.3516C265.567 71.5713 265.641 71.7666 265.641 71.9375V72.6211C265.519 72.7676 265.421 73.1338 265.348 73.6953L265.445 73.8906C265.372 74.8672 265.274 75.3555 265.152 75.3555C265.006 77.6016 264.811 78.8955 264.566 79.2617C264.64 79.2617 264.688 79.3594 264.762 79.5547L264.371 81.7031L264.469 82.1914C264.298 82.5332 263.346 83.3389 261.637 84.6328C260.929 84.999 260.318 85.8779 259.781 87.2695C259.781 87.3184 259.806 87.5137 259.879 87.8555C259.879 87.9531 259.806 88.0752 259.684 88.2461V88.6367L260.367 89.418C260.611 89.1494 261.197 88.832 262.125 88.4414C262.271 88.4414 262.296 88.9053 262.198 89.8086C262.125 90.7119 262.027 91.1758 261.93 91.1758C262.101 92.8604 262.149 94.667 262.027 96.5469C262.027 96.6934 262.052 96.8154 262.125 96.9375C261.856 98.7197 261.637 99.6963 261.441 99.8672V100.16C261.124 103.676 260.88 105.434 260.66 105.434C260.66 106.825 260.562 107.606 260.367 107.777C260.367 107.899 260.44 107.973 260.562 107.973C260.562 108.241 260.489 108.827 260.367 109.73L260.465 110.121C260.392 110.121 260.343 110.219 260.27 110.414L260.367 110.609C260.294 112.05 260.27 113.222 260.27 114.125V114.613C260.392 115.468 260.562 115.883 260.758 115.883C261.075 116.542 261.71 116.859 262.613 116.859C262.613 116.737 262.931 116.493 263.59 116.078C265.86 114.979 267.008 114.394 267.008 114.32C268.302 113.686 268.961 113.222 268.961 112.953C270.206 112.343 270.816 111.83 270.816 111.391C271.744 110.341 272.403 109.462 272.77 108.754C272.696 108.534 272.672 108.388 272.672 108.363C272.672 108.046 272.843 107.753 273.16 107.484C273.38 106.19 273.575 105.385 273.746 105.043C273.746 104.213 274.039 103.432 274.625 102.699L274.527 102.211C275.064 100.38 275.455 99.4766 275.699 99.4766C277.14 94.5205 278.214 91.2246 278.922 89.6133C278.922 89.4668 278.824 89.2715 278.629 89.0273V88.6367C278.946 88.6367 279.117 88.5391 279.117 88.3438H279.215L279.703 88.4414C279.703 88.124 281.534 87.9531 285.172 87.9531L287.32 87.7578L287.711 88.0508L287.906 87.9531L288.004 88.1484V88.3438L287.809 88.6367L288.004 88.9297V89.9062C288.004 90.0283 287.931 90.1016 287.809 90.1016C287.809 90.3213 287.906 90.6143 288.102 90.9805C288.102 91.2979 288.077 91.6152 288.004 91.957C288.077 92.2988 288.102 92.4941 288.102 92.543L287.906 93.7148C288.028 94.0811 288.102 94.5205 288.102 94.9844C288.102 95.082 288.028 95.2041 287.906 95.375V95.668H288.199L288.102 96.6445C288.102 96.8643 288.126 97.1572 288.199 97.5234L288.102 97.7188L288.199 98.3047V100.16L288.102 100.648C288.175 100.648 288.199 100.673 288.199 100.746C288.199 100.893 288.175 101.015 288.102 101.137C288.175 101.845 288.199 102.479 288.199 102.992V104.359C288.199 104.53 288.126 104.726 288.004 104.945C288.077 104.945 288.224 105.653 288.395 107.094V107.68L288.297 108.168C288.346 108.168 288.443 108.632 288.59 109.535C288.468 109.779 288.395 110.048 288.395 110.316V110.512C288.395 110.683 288.468 110.878 288.59 111.098L288.395 112.172C288.639 113.075 288.81 113.563 288.883 113.637L288.785 114.809V115.199L288.688 115.395C288.712 115.907 288.858 116.176 289.078 116.176V116.371C289.078 116.518 289.054 116.64 288.98 116.762L289.371 119.984C289.371 120.058 289.347 120.155 289.273 120.277C289.444 121.4 289.713 123.598 290.03 126.845C290.348 130.092 291.3 131.703 292.887 131.703L293.082 131.605L293.277 131.703C293.399 131.63 293.521 131.605 293.668 131.605H294.645C294.815 131.605 295.108 131.532 295.523 131.41C295.646 131.41 295.719 131.435 295.719 131.508C297.159 131.801 297.867 132.069 297.867 132.289L298.551 132.191C298.771 132.191 299.649 132.387 301.188 132.777L301.48 132.582H301.969C302.237 132.753 302.774 132.973 303.531 133.266C304.337 133.388 304.825 133.534 304.996 133.754C305.118 133.754 305.191 133.681 305.191 133.559C306.534 134.022 307.413 134.242 307.828 134.242C308.292 133.778 308.707 133.559 309.098 133.559C309.098 133.632 309.122 133.656 309.195 133.656C309.22 133.656 309.488 133.437 309.977 132.973C310.489 132.631 310.758 132.24 310.758 131.801C311.515 130.946 312.296 130.019 313.15 129.018C314.005 128.017 314.347 125.941 314.176 122.816L314.078 122.621L313.883 116.273C313.81 116.273 313.712 116.249 313.59 116.176C313.712 115.712 313.785 115.468 313.785 115.395V115.004L313.492 114.516H313.59C313.59 114.369 313.565 114.247 313.492 114.125C313.492 114.003 313.59 113.93 313.785 113.93V113.832C313.59 113.832 313.492 113.759 313.492 113.637V113.539C313.492 113.466 313.565 113.222 313.688 112.758V112.172C313.492 112.172 313.395 112.099 313.395 111.977V111.586C313.395 111.464 313.468 111.415 313.59 111.391C313.59 111.122 313.565 110.78 313.492 110.414V110.219L313.688 109.926V109.828C313.688 109.706 313.59 109.633 313.395 109.633C313.395 109.486 313.419 109.364 313.492 109.242C313.37 109.022 313.297 108.827 313.297 108.656V108.559C313.297 108.485 313.37 108.241 313.492 107.777V106.605L313.59 106.41C313.468 106.337 313.37 106.312 313.297 106.312C313.37 105.8 313.468 105.531 313.59 105.531C313.346 104.945 313.15 104.555 313.004 104.359C313.004 104.237 313.077 104.188 313.199 104.164C313.077 103.285 312.979 102.333 312.906 101.332C312.979 101.21 313.004 101.112 313.004 101.039L312.809 100.648C312.882 100.648 312.979 100.526 313.102 100.258V100.062C312.882 100.062 312.735 100.038 312.613 99.9648C312.613 99.8184 312.638 99.6963 312.711 99.5742C312.32 93.7148 312.149 90.7119 312.223 90.5898C312.149 89.7354 312.052 89.2471 311.93 89.125C311.93 88.9297 312.027 88.6611 312.223 88.3438C312.101 87.5381 311.954 87.0498 311.832 86.8789L311.93 86.1953C311.93 86.1221 311.905 85.8779 311.832 85.4141L312.027 85.0234C311.881 84.999 311.783 84.7061 311.734 84.1445V83.2656L311.637 82.7773C311.71 82.7773 311.783 82.6553 311.832 82.3867C311.832 82.3379 311.71 81.9717 311.441 81.3125V81.2148L311.539 81.0195H311.441C311.515 79.8232 311.612 79.1885 311.734 79.0664L311.344 77.6016C311.344 77.4551 311.368 77.333 311.441 77.2109C311.368 76.6738 311.197 76.1123 310.953 75.5508C311.026 75.4287 311.051 75.3066 311.051 75.1602L310.855 74.8672V74.7695L311.246 73.8906C311.148 73.6953 311.051 73.5977 310.953 73.5977C311.026 73.0117 311.173 72.2549 311.441 71.3516C311.441 71.3027 311.319 71.0098 311.051 70.4727C311.173 70.3506 311.295 70.2773 311.441 70.2773V69.6914C311.441 69.5205 311.368 69.2275 311.246 68.8125L311.441 68.4219C311.441 68.3975 311.319 68.2266 311.051 67.9336C311.051 67.7627 311.124 67.5674 311.246 67.3477L311.148 66.8594L311.246 66.2734L310.562 61.293C310.758 61.293 310.855 61.0244 310.855 60.5117C310.562 60.5117 310.367 60.1455 310.27 59.4375C310.05 55.4092 309.806 53.3828 309.488 53.3828C309.488 53.2363 309.513 53.1143 309.586 52.9922L309.391 52.6992V52.5039L309.488 52.3086C309.415 52.3086 309.391 52.2842 309.391 52.2109V52.1133C309.391 51.9424 309.464 51.7471 309.586 51.5273L309.391 51.2344V49.7695C309.049 48.7686 308.854 47.8408 308.805 46.9375L308.902 46.7422C308.829 46.6201 308.805 46.498 308.805 46.3516V46.1562L308.902 45.9609L307.926 37.2695C308.023 36.1953 308.146 35.585 308.316 35.4141V35.2188C307.804 34.7549 307.535 34.5107 307.535 34.4375V33.3633C307.535 33.1436 307.438 32.9238 307.242 32.6797V32.2891L307.34 31.6055C307.267 31.6055 307.242 31.5811 307.242 31.5078L307.34 31.3125C307.169 30.9219 306.949 30.5557 306.656 30.2383L306.754 29.6523C306.656 29.457 306.559 29.3594 306.461 29.3594L306.656 29.0664C306.656 28.9932 306.583 28.749 306.461 28.2852V27.9922C306.461 27.9189 306.534 27.6748 306.656 27.2109V27.1133C306.144 27.1133 305.753 26.0146 305.484 23.793C305.021 22.8408 304.801 22.2061 304.801 21.9375C304.142 20.8877 303.824 20.1797 303.824 19.7891C303.043 18.5439 302.652 17.8115 302.652 17.6406C301.676 17.1523 301.188 16.5664 301.188 15.8828C300.333 15.541 299.918 15.2236 299.918 14.9062C299.259 14.4424 298.941 14.1494 298.941 14.0273C297.306 13.4658 296.5 12.9043 296.5 12.3672H296.207C295.694 12.3672 295.401 12.2451 295.328 11.9766C294.669 11.9766 293.888 11.9521 292.984 11.8789ZM286.832 39.3203V39.9062C286.832 40.0771 286.759 40.3701 286.637 40.7852C286.637 40.8584 286.71 40.8828 286.832 40.8828L286.93 45.668C286.93 45.79 286.856 45.8633 286.734 45.8633C286.734 45.9365 286.856 46.3027 287.125 46.9375L286.832 48.5977L287.125 48.793C287.003 49.0615 286.93 49.2568 286.93 49.3789C286.905 52.04 286.759 53.3828 286.539 53.3828V53.4805C286.832 53.4805 287.027 54.1396 287.125 55.4336C287.125 55.7021 287.027 56.0684 286.832 56.5078L287.027 56.8984C287.027 57.2646 287.003 57.6064 286.93 57.9727L287.027 58.3633C286.954 58.8271 286.905 59.1201 286.832 59.2422C286.905 59.4131 286.954 59.7305 287.027 60.2188L286.93 60.4141C286.93 60.4873 286.954 60.585 287.027 60.707C286.954 60.9512 286.905 61.8057 286.832 63.2461L286.93 64.125L286.832 64.3203C287.101 65.9072 287.223 67.8604 287.223 70.1797C287.223 70.4971 287.198 70.9854 287.125 71.6445C287.198 71.6445 287.223 71.6689 287.223 71.7422H287.125C287.198 72.1816 287.296 72.4746 287.418 72.6211V74.0859C287.418 74.4277 287.442 74.9893 287.516 75.7461C287.442 75.7461 287.418 75.8193 287.418 75.9414C287.491 75.9414 287.516 75.9658 287.516 76.0391L287.418 76.5273C287.54 76.5273 287.613 76.6006 287.613 76.7227V76.918C287.345 77.5283 287.101 77.8701 286.832 77.9922H286.051L285.465 78.0898C285.196 77.9678 284.659 77.8945 283.902 77.8945H283.316C283.316 77.7969 283.243 77.6748 283.121 77.5039L282.633 77.6016C282.169 77.6016 281.949 77.3086 281.949 76.7227C282.022 76.7227 282.047 76.6982 282.047 76.625V76.5273C282.047 76.3564 281.974 76.1611 281.852 75.9414C281.974 75.624 282.047 75.2578 282.047 74.8672C282.364 74.501 282.608 73.7441 282.73 72.6211C282.633 72.6211 282.535 72.499 282.438 72.2305C282.56 71.5713 282.73 70.9854 282.926 70.4727C282.853 70.3506 282.828 70.2285 282.828 70.082L283.121 63.3438V63.2461L283.023 62.7578C283.268 62.6357 283.438 62.4404 283.512 62.1719C283.512 62.001 283.438 61.8057 283.316 61.5859C283.536 60.9268 283.756 60.6094 284 60.6094C283.927 60.4873 283.878 60.0967 283.805 59.4375V56.4102L286.051 47.0352L285.953 46.4492V46.2539C286.148 45.9365 286.344 44.1543 286.539 40.8828C286.539 40.6631 286.515 40.3701 286.441 40.0039C286.563 39.6865 286.637 39.4424 286.637 39.3203H286.832ZM409.806 7.875C409.098 8.0459 408.316 8.3877 407.462 8.85156C407.242 9.16895 406.559 9.75488 405.411 10.6338L403.092 17.958C402.579 19.0811 402.335 19.8379 402.335 20.2529C401.969 21.1562 401.798 21.6934 401.798 21.8643V22.6699C401.725 22.6699 401.603 22.6943 401.48 22.7676C401.334 24.0615 400.772 25.9414 399.771 28.3828L399.869 28.5781C399.869 29.2617 399.771 29.7256 399.552 29.9941V30.5068C399.527 31.7764 399.259 32.6064 398.795 32.9971V33.0947L398.99 33.4121V33.7051C398.697 34.4131 398.551 35.5361 398.526 37.0254C398.526 37.0986 398.38 37.3428 398.111 37.7334L398.209 38.3438L397.892 38.832L397.989 39.2471C397.477 42.25 396.988 44.4473 396.549 45.8633L396.646 46.083C396.646 46.6934 396.5 47.0107 396.231 47.084L396.329 47.2793V47.377C396.329 47.8164 396.109 48.9639 395.67 50.7949C395.743 50.7949 395.816 50.9414 395.865 51.21C395.45 51.5762 395.157 52.2109 395.035 53.1143L395.133 53.3096C395.108 54.5059 394.889 55.6045 394.474 56.6299C394.547 56.6299 394.571 56.6543 394.571 56.7275L394.547 57.6309C394.547 57.8506 394.449 58.1191 394.229 58.4365C394.303 58.4365 394.327 58.4609 394.327 58.5342C394.327 58.7051 394.303 58.8271 394.229 58.9492C394.303 59.0713 394.327 59.1934 394.327 59.3398L394.303 59.6572C394.303 59.877 394.156 60.3896 393.888 61.1709L393.985 61.3662C393.741 62.9531 393.521 63.9297 393.326 64.2715C393.326 64.4912 393.351 64.6621 393.424 64.7842C393.253 66.835 393.009 68.1045 392.74 68.5928C392.813 68.6172 392.887 68.7148 392.936 68.9102C392.862 68.9102 392.74 69.3496 392.521 70.2041C392.594 70.2041 392.618 70.2529 392.618 70.3262V70.6191C392.618 70.79 392.545 71.0098 392.398 71.2295C392.472 71.2295 392.496 71.2539 392.496 71.3271V71.4248C392.35 72.2061 392.179 72.8408 391.959 73.3291L392.057 73.5244C391.983 74.3301 391.886 74.7451 391.739 74.7451L391.837 75.2334C391.275 77.4062 390.885 78.5781 390.665 78.749L390.86 79.457V79.6768C390.641 79.9453 390.47 80.3359 390.323 80.873C390.396 80.9951 390.421 81.1172 390.421 81.2637V81.3613C390.25 81.9473 390.055 82.3867 389.884 82.6797V82.7773H390.104L390.079 83.4854C390.079 83.583 389.933 83.6807 389.664 83.7783C389.664 83.9248 389.688 84.0713 389.762 84.1934C389.64 84.3154 389.566 84.6816 389.542 85.292C388.956 88.2949 388.565 90.0039 388.346 90.4189C388.028 92.0547 387.687 93.4951 387.271 94.7402C387.076 96.8154 386.856 97.8652 386.612 97.8408C386.612 97.8652 386.637 98.0117 386.71 98.2559C386.539 99.4033 386.319 99.9648 386.075 99.9648C386.075 100.038 386.1 100.136 386.173 100.258V100.355C385.685 101.088 385.44 101.479 385.44 101.552L385.538 101.771C385.44 102.04 385.343 102.162 385.221 102.162C385.221 102.235 385.245 102.333 385.318 102.455C385.318 102.772 385.147 103.09 384.806 103.358C384.806 103.432 384.83 103.554 384.903 103.676C384.903 103.749 384.879 103.847 384.806 103.969L385.001 104.481C384.928 104.604 384.879 104.701 384.879 104.774H384.781C384.659 104.774 384.61 104.701 384.586 104.579V104.481L384.708 103.871C384.635 103.749 384.439 103.456 384.098 102.943C384.122 102.772 384.195 102.406 384.317 101.845C383.951 100.893 383.756 100.282 383.756 100.014C383.756 99.9404 383.829 99.916 383.951 99.916V99.8184C383.561 98.085 383.243 97.1572 382.999 96.9863C382.877 95.9365 382.706 95.2773 382.438 94.96L382.73 94.5449V94.1543C382.364 92.8115 382.169 91.9814 382.169 91.6152L382.291 91.2246C382.193 91.2246 382.096 91.0781 381.998 90.8096C381.998 90.7363 382.022 90.6387 382.096 90.5166C381.852 89.833 381.681 89.4912 381.607 89.4912C381.607 89.1982 381.681 88.9297 381.827 88.6855C381.729 88.3682 381.632 88.1973 381.534 88.1729C381.388 87.3184 381.095 86.4395 380.68 85.5361V84.9502L380.777 84.7305C380.802 84.1934 380.558 83.6807 380.094 83.2168C379.776 81.6543 379.508 80.4336 379.264 79.5791L379.361 79.0664C379.312 78.7246 379.215 78.5537 379.068 78.5537C378.824 77.4062 378.531 76.6494 378.189 76.2344C378.214 76.1611 378.238 76.0391 378.312 75.917C378.043 75.3311 377.921 74.7939 377.921 74.3057C377.945 73.7441 378.043 73.3291 378.263 73.0117C377.75 72.3037 377.408 71.3271 377.188 70.0576C377.188 69.9844 377.262 69.667 377.408 69.0566C377.408 68.8369 377.237 68.3975 376.92 67.7383C376.944 67.6162 377.018 67.3477 377.14 66.9326C376.749 66.2734 376.554 65.4434 376.578 64.4912C376.578 64.418 376.627 64.3203 376.7 64.1982C376.627 63.6611 376.432 63.1973 376.114 62.7822L376.212 62.2695C376.017 61.6348 375.919 61.2197 375.943 61.0488V60.2432L375.26 59.7305L375.65 59.6328V59.2422C375.675 59.1201 375.602 59.0713 375.455 59.0469C375.455 58.9736 375.528 58.583 375.675 57.8262C375.699 57.4844 375.602 57.1914 375.406 56.9229V56.8252L375.626 56.1172C375.626 55.8242 375.406 55.2871 374.942 54.4814L375.04 53.9932C375.064 53.2363 374.771 52.5039 374.186 51.7471C374.186 51.625 374.259 51.4785 374.381 51.2588L374.283 50.6484L374.405 50.4531C374.186 50.0381 374.015 49.7695 373.917 49.623L374.015 49.4277C373.917 49.2324 373.844 49.1348 373.819 49.1348C373.6 47.792 373.404 47.1084 373.233 47.1084C372.965 45.5459 372.745 44.7646 372.574 44.7646C371.573 42.1279 370.865 40.541 370.45 39.9795C370.206 39.0029 369.522 37.6357 368.424 35.8535C368.058 33.4854 367.276 32.3623 366.056 32.4844C366.056 32.2891 366.031 31.6055 365.982 30.458C365.689 30.1162 365.421 29.9453 365.177 29.9453C364.688 29.1885 364.151 28.8223 363.59 28.7979H363.395C362.296 30.2139 361.734 31.2148 361.734 31.8008H361.515L361.319 31.7031C361.319 31.7764 361.295 31.8008 361.222 31.8008C361.222 31.9229 361.295 31.9961 361.417 31.9961C361.417 32.46 361.075 33.1924 360.367 34.1934C360.025 35.1943 359.146 37.5625 357.73 41.3467C356.314 45.1309 355.46 47.2305 355.191 47.6943C355.265 47.8164 355.289 47.9629 355.265 48.1094V48.3047C355.265 48.3779 355.24 48.4023 355.167 48.4023C354.703 49.8916 354.361 50.624 354.117 50.5996C354.093 51.5518 353.751 52.5771 353.067 53.7246H353.165C352.677 55.9463 352.311 57.0449 352.091 57.0205C351.554 59.7061 351.139 61.0488 350.821 61.0488C350.821 61.1221 350.846 61.2197 350.919 61.3418C350.846 62.416 350.724 62.9531 350.577 62.9531C350.089 65.2969 349.796 66.4688 349.723 66.4688C349.356 68.9834 349.063 70.375 348.844 70.5947C348.844 70.7168 348.917 70.79 349.039 70.79C348.6 73.2559 347.55 78.2119 345.865 85.6582C345.67 86.3906 345.499 87.2939 345.328 88.3926C343.668 95.7412 342.667 99.8916 342.301 100.868L342.398 101.381C342.228 102.187 341.959 102.943 341.568 103.603C341.69 103.603 341.764 103.773 341.739 104.091C341.739 104.286 341.666 104.481 341.544 104.701L341.642 105.214C341.568 105.482 341.52 105.751 341.52 106.02C341.446 106.02 341.349 106.044 341.202 106.117C341.202 106.532 341.153 107.216 341.08 108.119C340.665 109.071 340.445 109.706 340.445 110.023L340.519 111.024C340.445 111.562 340.323 111.83 340.104 111.83C340.104 111.977 340.128 112.343 340.201 112.953C340.055 113.49 339.981 113.832 339.981 113.954L339.957 114.149H339.566C339.566 113.832 339.396 113.49 339.078 113.124C339.322 111.513 339.518 110.585 339.64 110.316V110.219L339.322 110.414H339.225L339.273 108.192C339.273 107.948 339.298 107.655 339.371 107.289C339.322 106.703 339.2 106.19 339.005 105.775L339.322 104.97C338.907 104.506 338.712 104.14 338.736 103.847L338.761 102.626C338.492 101.82 338.37 101.381 338.37 101.308L338.688 100.307C338.517 99.8916 338.37 99.6963 338.297 99.6963L338.834 91.1514L338.858 90.834L338.712 91.0049C338.688 90.3213 338.37 89.3691 337.76 88.1484L337.882 87.5625C337.638 86.9521 337.442 86.293 337.296 85.6338L337.516 85.1211C337.418 84.6572 337.32 84.3643 337.223 84.2178V84.1201C337.345 83.9004 337.442 83.8027 337.54 83.8027C337.54 83.4854 337.516 82.9727 337.467 82.2891L337.564 82.0938L337.149 75.8438L337.076 75.6484C337.149 75.2822 337.101 71.5957 336.954 64.6377C336.881 64.6377 336.832 64.54 336.759 64.3447L336.856 63.7344C336.734 63.3926 336.661 63.1484 336.661 63.0264C336.661 62.9287 336.71 62.4648 336.783 61.6104L336.197 49.3057C335.001 41.4199 334.366 37.416 334.269 37.2695L334.488 36.9766V36.8789C334.22 36.0244 334.024 35.5605 333.902 35.4385V35.1455C333.927 34.7061 333.78 33.8027 333.463 32.4111C333.438 32.1426 333.219 31.8984 332.853 31.7031V31.6055C333.072 31.2881 333.17 31.0195 333.17 30.7998L333.097 30.0918C332.438 28.9443 332.096 27.9922 332.12 27.2354L330.875 23.5C330.753 22.7432 330.484 21.8643 330.118 20.8633C329.581 19.4473 329.166 18.7393 328.849 18.7148C328.36 16.7617 327.726 15.7852 326.969 15.7607C326.163 15.0771 325.748 14.7354 325.675 14.7354C324.552 12.9043 323.722 11.9766 323.209 11.9766C322.525 11.2686 321.988 10.8535 321.622 10.7314C320.67 10.7803 319.84 10.8047 319.181 10.8047L318.277 10.7803C317.984 11.0977 317.423 11.2686 316.568 11.2441C315.836 11.7812 315.348 12.0498 315.128 12.0254C314.859 12.5381 314.566 13.002 314.2 13.4414H314.298C314.298 13.71 314.103 13.9541 313.688 14.2227L313.785 14.9307V15.0283C313.37 15.3945 313.15 15.9316 313.15 16.6396C313.126 17.1035 313.297 17.6162 313.614 18.1533C313.614 18.373 313.59 18.5928 313.517 18.8613C313.639 19.3252 313.688 19.7402 313.688 20.082V20.2773L313.37 20.6924V21.2783C313.37 21.376 313.419 21.7422 313.541 22.4014V22.6943L313.419 23.915C313.541 23.915 313.614 23.9883 313.614 24.1104V24.208L313.321 24.7207C313.297 24.8428 313.395 25.7949 313.565 27.5527L313.468 27.9434L313.541 28.4561L313.443 28.9443C313.492 29.8965 313.541 30.3604 313.614 30.3604C313.736 32.6553 313.883 33.9004 314.054 34.0957C313.98 34.0957 313.907 34.2422 313.858 34.5107C314.029 35.6338 314.176 36.8789 314.298 38.2461L314.2 38.4414L314.493 39.0518L314.469 39.7598L314.371 39.9551C314.444 39.9551 314.469 39.9795 314.469 40.0527V40.4678C314.444 40.7363 314.469 41.1025 314.542 41.5664C314.469 41.6885 314.444 41.8105 314.444 41.8838L314.713 43.5928C314.713 43.7148 314.64 43.8369 314.493 44.0078V44.3008C314.493 44.4229 314.566 44.4961 314.688 44.4961C314.811 45.5459 314.933 46.1562 315.055 46.3271C315.055 46.4492 314.981 46.6934 314.859 47.0352C315.641 51.9424 316.031 55.043 316.007 56.3369L315.885 56.9229C315.982 57.1914 316.153 57.4111 316.397 57.5332C316.397 57.6064 316.373 57.6309 316.3 57.6309C316.275 57.9238 316.3 58.29 316.373 58.7539L316.275 58.9492L316.617 61.7812L316.593 63.0996L316.69 63.5879C316.617 63.5879 316.593 63.6611 316.593 63.8076L316.959 65.0039L316.861 65.5166C316.861 65.6387 316.935 65.7119 317.057 65.7119C317.057 65.8096 317.008 66.1514 316.935 66.7373C316.935 67.2988 317.032 67.8848 317.203 68.5439L317.105 68.7393C317.105 69.0566 317.252 69.7891 317.569 70.9854C317.496 70.9609 317.423 71.1074 317.374 71.376C317.521 71.376 317.667 72.0596 317.838 73.4023L317.813 74.501C318.082 75.6729 318.204 76.5518 318.18 77.1377L318.082 77.6504C318.302 77.6504 318.448 78.3096 318.546 79.6523V80.0674C318.521 80.3604 318.448 80.6289 318.326 80.873C318.448 80.9219 318.619 81.4346 318.79 82.3867L318.692 82.582C318.692 82.8018 318.741 83.1924 318.863 83.8027C318.863 83.9248 318.79 84.0957 318.668 84.3154C318.839 84.3154 318.961 84.8525 319.034 85.9268L318.937 86.5371C319.181 88.0752 319.303 89.0518 319.278 89.4668C319.205 89.4668 319.181 89.4912 319.181 89.5645C319.254 89.5645 319.303 89.6621 319.376 89.8574C319.352 91.1514 319.913 94.3984 321.036 99.5742C321.671 101.845 321.988 103.212 321.964 103.627V103.822H322.062C322.452 104.628 322.647 105.409 322.623 106.166V106.459C322.94 106.801 323.233 107.655 323.502 108.998C324.576 112.562 325.113 114.613 325.113 115.175C325.577 116.103 325.772 117.25 325.748 118.617V118.715C325.968 118.715 326.114 119.008 326.236 119.618L326.139 119.838C326.407 120.204 326.529 120.692 326.529 121.254L326.505 121.645C326.7 121.913 326.798 122.133 326.798 122.353V123.061C327.115 123.427 327.286 123.671 327.286 123.793C327.848 126.234 328.556 128.236 329.41 129.774C329.996 130.385 330.289 130.8 330.289 130.995L331.461 133.021C331.998 133.192 332.804 133.729 333.854 134.682C335.172 135.121 335.88 135.438 335.953 135.634C336.173 135.634 336.393 135.561 336.661 135.438C337.223 135.512 337.711 135.561 338.077 135.561H338.272C339.029 136.342 339.762 136.83 340.47 137.001C340.543 137.025 340.665 137.001 340.787 136.928C340.885 136.928 341.178 137.001 341.69 137.123C342.008 136.928 342.252 136.83 342.398 136.854C343.448 136 344.059 135.561 344.229 135.561C344.815 134.901 345.157 134.56 345.255 134.56C345.768 134.584 346.646 133.144 347.843 130.287H347.745C349.356 126.21 350.162 124.062 350.162 123.866C351.358 121.327 352.262 119.13 352.896 117.25C353.214 115.321 353.458 113.905 353.678 113.026C353.604 112.904 353.58 112.807 353.58 112.733C353.8 112.172 354.068 111.146 354.435 109.706C354.386 109.364 354.361 109.169 354.361 109.096C354.361 108.974 354.386 108.9 354.459 108.9C354.728 107.899 354.972 106.654 355.216 105.189C355.24 104.945 355.216 104.652 355.143 104.286C355.216 104.066 355.265 103.969 355.338 103.969C355.631 102.699 355.851 102.064 355.973 102.064C355.997 101.942 355.924 101.796 355.802 101.576C355.802 100.771 356.119 99.7939 356.754 98.6709V98.5488L356.559 98.2559C357.047 97.3281 357.291 96.0098 357.315 94.3252C357.511 94.3252 357.804 93.4463 358.17 91.7129L357.975 91.4199C357.975 91.2979 358.072 91.2246 358.292 91.2246V90.8096L358.194 90.2236C358.268 90.1016 358.316 89.9795 358.316 89.9062L358.219 89.7109C358.341 89.54 358.438 89.1006 358.536 88.3926C358.463 88.3926 358.414 88.2949 358.341 88.0996C358.707 87.0986 358.878 86.5127 358.878 86.3906L358.78 85.7803C358.854 85.3652 358.927 85.1699 359 85.1943C359.366 83.0703 359.708 81.3857 360.074 80.165H359.977C360.416 77.9434 360.807 76.2832 361.173 75.1357H361.49L361.466 75.2334C361.466 75.4775 361.49 75.7949 361.563 76.1611C361.49 76.2832 361.466 76.3809 361.466 76.4541C361.539 76.4541 361.637 76.4785 361.759 76.5518C361.979 78.2363 362.125 79.0908 362.223 79.0908C362.296 80.6289 362.418 81.4102 362.589 81.4102C362.638 82.7285 362.76 83.6807 362.931 84.2422V84.8525L362.809 85.5605C362.979 85.5605 363.102 85.8535 363.199 86.4639C363.126 86.5859 363.102 86.6836 363.102 86.7568C363.102 86.9033 363.175 86.9766 363.297 86.9766L363.175 87.9775L363.663 88.7832C364.322 93.0312 364.786 95.5947 365.055 96.4736C364.981 96.4736 364.957 96.498 364.957 96.5713V96.8887C365.079 97.1572 365.177 97.2793 365.25 97.2793C365.616 99.4521 365.885 100.844 366.08 101.43C366.739 103.065 367.057 104.115 367.032 104.579L368.009 107.216L367.887 107.729C368.106 107.729 368.204 107.753 368.204 107.826L369.449 110.878C369.986 112.416 370.353 113.246 370.523 113.417C371.988 118.3 373.526 122.353 375.162 125.6C375.626 126.942 376.676 128.603 378.287 130.58C379.947 132.191 382.047 133.461 384.586 134.364C384.586 134.462 385.123 134.706 386.197 135.097C386.368 135.097 386.588 134.975 386.905 134.706C387.369 134.853 388.004 134.975 388.81 135.048C389.273 134.877 389.615 134.706 389.835 134.56H390.03C390.03 134.633 390.055 134.73 390.128 134.853L390.934 134.877C394.864 133.534 396.891 132.826 397.062 132.753C397.232 132.68 397.818 132.631 398.844 132.655C400.016 131.166 400.602 130.189 400.602 129.75C400.528 129.75 400.479 129.652 400.406 129.433V129.335L401.017 129.359C401.017 129.237 401.041 129.164 401.114 129.164L404.435 123.842L407.486 117.738C409.977 104.701 411.124 99.5742 410.904 102.382C410.709 105.165 410.855 103.48 411.319 97.3525C411.808 96.7178 412.052 96.1074 412.076 95.5459C412.003 95.5459 411.954 95.5215 411.979 95.4482V94.6426C411.979 94.4473 411.881 94.1787 411.686 93.8369L412.003 93.4219C412.003 93.2021 411.905 92.9824 411.71 92.7139V92.5186C411.979 92.5186 412.198 92.3232 412.32 91.9326L412.247 91.0049C412.247 90.8828 412.369 90.834 412.638 90.834L412.662 90.6143C412.662 90.541 412.589 90.0039 412.467 89.0029L412.589 88.8076C412.491 88.8076 412.418 88.6123 412.394 88.1973C412.613 87.6846 412.711 87.3672 412.711 87.2939L412.516 86.5859C412.833 86.5859 413.053 85.7803 413.175 84.1689C413.102 84.1689 413.053 84.0957 413.077 83.9736L413.395 82.7773C413.199 82.3135 413.102 81.7764 413.126 81.1416V80.9463C413.321 80.7754 413.468 80.0918 413.565 78.8467C413.492 78.8223 413.443 78.7246 413.37 78.5293C413.37 78.0654 413.541 77.4307 413.907 76.625C413.834 76.625 413.785 76.6006 413.785 76.5273L413.81 76.1123C413.81 75.9414 413.956 75.4775 414.225 74.7207C414.249 74.4766 414.225 74.1592 414.151 73.793C414.225 73.6709 414.249 73.5732 414.249 73.5C414.249 73.4268 414.225 73.3291 414.151 73.207C414.225 72.9385 414.273 72.6943 414.273 72.499C414.762 71.1562 415.006 70.2041 415.03 69.5938V69.4717L414.64 68.8613V68.666C414.713 68.666 414.811 68.6416 414.933 68.5684C415.055 68.5684 415.274 67.5918 415.592 65.6631C415.519 65.541 415.494 65.4189 415.494 65.3457L415.616 64.8574L415.519 63.6367L415.641 62.9287C415.519 62.9287 415.47 62.7578 415.445 62.4404V62.2207L415.543 62.0254C415.47 62.0254 415.445 62.001 415.445 61.9277L415.47 61.415C415.47 61.293 415.543 61.2441 415.665 61.2197C415.47 60.7314 415.372 60.4385 415.372 60.3164V60.0967C415.396 59.9258 415.47 59.7305 415.592 59.5107C415.519 59.5107 415.494 59.4863 415.494 59.4131V59.1934C415.494 59.0469 415.543 58.9248 415.616 58.8027C415.543 58.7051 415.494 58.0947 415.445 56.9717C415.519 56.8496 415.714 56.5566 416.056 56.0928C416.08 55.3604 415.909 54.6279 415.592 53.8711C415.665 52.5771 415.787 51.8691 415.934 51.7471C415.934 51.5762 415.885 50.7949 415.763 49.4277C415.934 49.1104 416.104 48.5244 416.3 47.7188C415.982 47.1084 415.812 46.6201 415.812 46.3027C415.836 45.6924 415.885 45.0332 415.958 44.2764C415.958 44.0566 415.787 43.5684 415.47 42.8604C415.763 41.4199 415.909 40.4678 415.909 40.0527C415.934 39.7598 415.812 39.2959 415.543 38.6367C415.543 38.5635 415.592 38.2949 415.665 37.8311C415.543 36.8789 415.372 36.0732 415.201 35.3896C415.348 34.7793 415.421 34.3643 415.421 34.0957V33.1924L415.543 32.9727C415.348 32.7041 415.25 32.4355 415.25 32.167V31.874C414.981 31.8496 414.786 31.1904 414.688 29.8477V29.5303L414.786 29.335C414.688 29.335 414.518 28.8955 414.298 28.0166L414.322 26.6006L414.444 26.4053C414.103 25.9902 413.932 25.4043 413.956 24.6963C413.59 22.6699 413.272 21.6445 413.004 21.6445C413.028 20.6191 412.662 19.374 411.954 17.8848V17.2988C411.93 16.3467 411.783 15.8828 411.49 15.8584L411.588 15.1748L411.612 14.2471L411.71 14.0518C411.734 13.8076 411.368 12.8311 410.66 11.1221C410.66 10.6582 410.709 9.90137 410.807 8.90039C410.489 8.2168 410.147 7.875 409.806 7.875ZM316.422 67.9336H316.617C316.617 67.8115 316.544 67.7627 316.422 67.7383V67.9336ZM448.258 11.8789C446.231 12.1963 445.23 12.416 445.23 12.5625L444.742 12.4648L444.156 12.7578V12.6602C444.01 12.6602 443.692 12.7822 443.18 13.0508C443.18 12.9775 443.155 12.9531 443.082 12.9531H442.887C442.521 13.3438 442.325 13.5391 442.301 13.5391H442.203L442.008 13.4414V13.5391L441.52 13.4414C441.446 13.4414 441.422 13.5146 441.422 13.6367L440.543 14.3203C439.688 14.5156 439.273 14.6865 439.273 14.8086C438.736 14.8086 438.248 15.1748 437.809 15.8828C436.368 17.3232 435.587 18.0312 435.465 18.0312C435.416 18.3486 435.318 18.5195 435.172 18.5195C434.635 19.8135 434.122 20.4727 433.609 20.4727L433.707 20.668C433.707 20.8389 433.316 21.6689 432.535 23.1094C431.534 25.1846 430.973 26.2344 430.875 26.2344C430.606 27.5283 430.289 28.1875 429.898 28.1875L429.996 28.3828V28.5781C429.996 28.7002 429.923 28.7734 429.801 28.7734C429.337 30.7021 428.971 31.7764 428.727 31.9961C428.556 32.8018 428.336 33.3877 428.043 33.7539V34.3398C427.262 37.0742 426.773 38.6367 426.578 39.0273C426.407 40.2725 426.261 40.8828 426.09 40.8828C426.09 40.9561 426.114 41.0537 426.188 41.1758C426.188 41.3711 426.114 41.5908 425.992 41.8594L426.09 42.0547C425.675 44.1299 425.431 45.1797 425.309 45.1797C424.771 48.5488 424.161 51.2832 423.453 53.3828V53.4805L423.551 53.9688H423.355C423.355 54.042 423.38 54.0664 423.453 54.0664C423.453 54.2373 423.307 55.2383 422.989 57.0693C422.696 58.9004 422.452 59.9258 422.281 60.1211L422.379 60.6094C422.257 61.0732 422.11 61.293 421.988 61.293L422.086 61.8789C422.086 62.001 422.062 62.0742 421.988 62.0742C421.817 63.7588 421.622 64.6133 421.402 64.6133V64.7109L421.598 65.0039V65.1016C421.427 67.0303 421.28 68.0557 421.109 68.2266V68.7148L421.207 69.3008C421.085 69.667 420.987 70.1064 420.914 70.668C420.987 70.79 421.012 70.8877 421.012 70.9609C420.914 71.2295 420.816 71.3516 420.719 71.3516C420.841 71.5713 420.914 71.7666 420.914 71.9375V72.6211C420.792 72.7676 420.694 73.1338 420.621 73.6953L420.719 73.8906C420.646 74.8672 420.548 75.3555 420.426 75.3555C420.279 77.6016 420.084 78.8955 419.84 79.2617C419.913 79.2617 419.962 79.3594 420.035 79.5547L419.645 81.7031L419.742 82.1914C419.571 82.5332 418.619 83.3389 416.91 84.6328C416.202 84.999 415.592 85.8779 415.055 87.2695C415.055 87.3184 415.079 87.5137 415.152 87.8555C415.152 87.9531 415.079 88.0752 414.957 88.2461V88.6367L415.641 89.418C415.885 89.1494 416.471 88.832 417.398 88.4414C417.545 88.4414 417.569 88.9053 417.472 89.8086C417.398 90.7119 417.301 91.1758 417.203 91.1758C417.374 92.8604 417.423 94.667 417.301 96.5469C417.301 96.6934 417.325 96.8154 417.398 96.9375C417.13 98.7197 416.91 99.6963 416.715 99.8672V100.16C416.397 103.676 416.153 105.434 415.934 105.434C415.934 106.825 415.836 107.606 415.641 107.777C415.641 107.899 415.714 107.973 415.836 107.973C415.836 108.241 415.763 108.827 415.641 109.73L415.738 110.121C415.665 110.121 415.616 110.219 415.543 110.414L415.641 110.609C415.567 112.05 415.543 113.222 415.543 114.125V114.613C415.665 115.468 415.836 115.883 416.031 115.883C416.349 116.542 416.983 116.859 417.887 116.859C417.887 116.737 418.204 116.493 418.863 116.078C421.134 114.979 422.281 114.394 422.281 114.32C423.575 113.686 424.234 113.222 424.234 112.953C425.479 112.343 426.09 111.83 426.09 111.391C427.018 110.341 427.677 109.462 428.043 108.754C427.97 108.534 427.945 108.388 427.945 108.363C427.945 108.046 428.116 107.753 428.434 107.484C428.653 106.19 428.849 105.385 429.02 105.043C429.02 104.213 429.312 103.432 429.898 102.699L429.801 102.211C430.338 100.38 430.729 99.4766 430.973 99.4766C432.413 94.5205 433.487 91.2246 434.195 89.6133C434.195 89.4668 434.098 89.2715 433.902 89.0273V88.6367C434.22 88.6367 434.391 88.5391 434.391 88.3438H434.488L434.977 88.4414C434.977 88.124 436.808 87.9531 440.445 87.9531L442.594 87.7578L442.984 88.0508L443.18 87.9531L443.277 88.1484V88.3438L443.082 88.6367L443.277 88.9297V89.9062C443.277 90.0283 443.204 90.1016 443.082 90.1016C443.082 90.3213 443.18 90.6143 443.375 90.9805C443.375 91.2979 443.351 91.6152 443.277 91.957C443.351 92.2988 443.375 92.4941 443.375 92.543L443.18 93.7148C443.302 94.0811 443.375 94.5205 443.375 94.9844C443.375 95.082 443.302 95.2041 443.18 95.375V95.668H443.473L443.375 96.6445C443.375 96.8643 443.399 97.1572 443.473 97.5234L443.375 97.7188L443.473 98.3047V100.16L443.375 100.648C443.448 100.648 443.473 100.673 443.473 100.746C443.473 100.893 443.448 101.015 443.375 101.137C443.448 101.845 443.473 102.479 443.473 102.992V104.359C443.473 104.53 443.399 104.726 443.277 104.945C443.351 104.945 443.497 105.653 443.668 107.094V107.68L443.57 108.168C443.619 108.168 443.717 108.632 443.863 109.535C443.741 109.779 443.668 110.048 443.668 110.316V110.512C443.668 110.683 443.741 110.878 443.863 111.098L443.668 112.172C443.912 113.075 444.083 113.563 444.156 113.637L444.059 114.809V115.199L443.961 115.395C443.985 115.907 444.132 116.176 444.352 116.176V116.371C444.352 116.518 444.327 116.64 444.254 116.762L444.645 119.984C444.645 120.058 444.62 120.155 444.547 120.277C444.718 121.4 444.986 123.598 445.304 126.845C445.621 130.092 446.573 131.703 448.16 131.703L448.355 131.605L448.551 131.703C448.673 131.63 448.795 131.605 448.941 131.605H449.918C450.089 131.605 450.382 131.532 450.797 131.41C450.919 131.41 450.992 131.435 450.992 131.508C452.433 131.801 453.141 132.069 453.141 132.289L453.824 132.191C454.044 132.191 454.923 132.387 456.461 132.777L456.754 132.582H457.242C457.511 132.753 458.048 132.973 458.805 133.266C459.61 133.388 460.099 133.534 460.27 133.754C460.392 133.754 460.465 133.681 460.465 133.559C461.808 134.022 462.687 134.242 463.102 134.242C463.565 133.778 463.98 133.559 464.371 133.559C464.371 133.632 464.396 133.656 464.469 133.656C464.493 133.656 464.762 133.437 465.25 132.973C465.763 132.631 466.031 132.24 466.031 131.801C466.788 130.946 467.569 130.019 468.424 129.018C469.278 128.017 469.62 125.941 469.449 122.816L469.352 122.621L469.156 116.273C469.083 116.273 468.985 116.249 468.863 116.176C468.985 115.712 469.059 115.468 469.059 115.395V115.004L468.766 114.516H468.863C468.863 114.369 468.839 114.247 468.766 114.125C468.766 114.003 468.863 113.93 469.059 113.93V113.832C468.863 113.832 468.766 113.759 468.766 113.637V113.539C468.766 113.466 468.839 113.222 468.961 112.758V112.172C468.766 112.172 468.668 112.099 468.668 111.977V111.586C468.668 111.464 468.741 111.415 468.863 111.391C468.863 111.122 468.839 110.78 468.766 110.414V110.219L468.961 109.926V109.828C468.961 109.706 468.863 109.633 468.668 109.633C468.668 109.486 468.692 109.364 468.766 109.242C468.644 109.022 468.57 108.827 468.57 108.656V108.559C468.57 108.485 468.644 108.241 468.766 107.777V106.605L468.863 106.41C468.741 106.337 468.644 106.312 468.57 106.312C468.644 105.8 468.741 105.531 468.863 105.531C468.619 104.945 468.424 104.555 468.277 104.359C468.277 104.237 468.351 104.188 468.473 104.164C468.351 103.285 468.253 102.333 468.18 101.332C468.253 101.21 468.277 101.112 468.277 101.039L468.082 100.648C468.155 100.648 468.253 100.526 468.375 100.258V100.062C468.155 100.062 468.009 100.038 467.887 99.9648C467.887 99.8184 467.911 99.6963 467.984 99.5742C467.594 93.7148 467.423 90.7119 467.496 90.5898C467.423 89.7354 467.325 89.2471 467.203 89.125C467.203 88.9297 467.301 88.6611 467.496 88.3438C467.374 87.5381 467.228 87.0498 467.105 86.8789L467.203 86.1953C467.203 86.1221 467.179 85.8779 467.105 85.4141L467.301 85.0234C467.154 84.999 467.057 84.7061 467.008 84.1445V83.2656L466.91 82.7773C466.983 82.7773 467.057 82.6553 467.105 82.3867C467.105 82.3379 466.983 81.9717 466.715 81.3125V81.2148L466.812 81.0195H466.715C466.788 79.8232 466.886 79.1885 467.008 79.0664L466.617 77.6016C466.617 77.4551 466.642 77.333 466.715 77.2109C466.642 76.6738 466.471 76.1123 466.227 75.5508C466.3 75.4287 466.324 75.3066 466.324 75.1602L466.129 74.8672V74.7695L466.52 73.8906C466.422 73.6953 466.324 73.5977 466.227 73.5977C466.3 73.0117 466.446 72.2549 466.715 71.3516C466.715 71.3027 466.593 71.0098 466.324 70.4727C466.446 70.3506 466.568 70.2773 466.715 70.2773V69.6914C466.715 69.5205 466.642 69.2275 466.52 68.8125L466.715 68.4219C466.715 68.3975 466.593 68.2266 466.324 67.9336C466.324 67.7627 466.397 67.5674 466.52 67.3477L466.422 66.8594L466.52 66.2734L465.836 61.293C466.031 61.293 466.129 61.0244 466.129 60.5117C465.836 60.5117 465.641 60.1455 465.543 59.4375C465.323 55.4092 465.079 53.3828 464.762 53.3828C464.762 53.2363 464.786 53.1143 464.859 52.9922L464.664 52.6992V52.5039L464.762 52.3086C464.688 52.3086 464.664 52.2842 464.664 52.2109V52.1133C464.664 51.9424 464.737 51.7471 464.859 51.5273L464.664 51.2344V49.7695C464.322 48.7686 464.127 47.8408 464.078 46.9375L464.176 46.7422C464.103 46.6201 464.078 46.498 464.078 46.3516V46.1562L464.176 45.9609L463.199 37.2695C463.297 36.1953 463.419 35.585 463.59 35.4141V35.2188C463.077 34.7549 462.809 34.5107 462.809 34.4375V33.3633C462.809 33.1436 462.711 32.9238 462.516 32.6797V32.2891L462.613 31.6055C462.54 31.6055 462.516 31.5811 462.516 31.5078L462.613 31.3125C462.442 30.9219 462.223 30.5557 461.93 30.2383L462.027 29.6523C461.93 29.457 461.832 29.3594 461.734 29.3594L461.93 29.0664C461.93 28.9932 461.856 28.749 461.734 28.2852V27.9922C461.734 27.9189 461.808 27.6748 461.93 27.2109V27.1133C461.417 27.1133 461.026 26.0146 460.758 23.793C460.294 22.8408 460.074 22.2061 460.074 21.9375C459.415 20.8877 459.098 20.1797 459.098 19.7891C458.316 18.5439 457.926 17.8115 457.926 17.6406C456.949 17.1523 456.461 16.5664 456.461 15.8828C455.606 15.541 455.191 15.2236 455.191 14.9062C454.532 14.4424 454.215 14.1494 454.215 14.0273C452.579 13.4658 451.773 12.9043 451.773 12.3672H451.48C450.968 12.3672 450.675 12.2451 450.602 11.9766C449.942 11.9766 449.161 11.9521 448.258 11.8789ZM442.105 39.3203V39.9062C442.105 40.0771 442.032 40.3701 441.91 40.7852C441.91 40.8584 441.983 40.8828 442.105 40.8828L442.203 45.668C442.203 45.79 442.13 45.8633 442.008 45.8633C442.008 45.9365 442.13 46.3027 442.398 46.9375L442.105 48.5977L442.398 48.793C442.276 49.0615 442.203 49.2568 442.203 49.3789C442.179 52.04 442.032 53.3828 441.812 53.3828V53.4805C442.105 53.4805 442.301 54.1396 442.398 55.4336C442.398 55.7021 442.301 56.0684 442.105 56.5078L442.301 56.8984C442.301 57.2646 442.276 57.6064 442.203 57.9727L442.301 58.3633C442.228 58.8271 442.179 59.1201 442.105 59.2422C442.179 59.4131 442.228 59.7305 442.301 60.2188L442.203 60.4141C442.203 60.4873 442.228 60.585 442.301 60.707C442.228 60.9512 442.179 61.8057 442.105 63.2461L442.203 64.125L442.105 64.3203C442.374 65.9072 442.496 67.8604 442.496 70.1797C442.496 70.4971 442.472 70.9854 442.398 71.6445C442.472 71.6445 442.496 71.6689 442.496 71.7422H442.398C442.472 72.1816 442.569 72.4746 442.691 72.6211V74.0859C442.691 74.4277 442.716 74.9893 442.789 75.7461C442.716 75.7461 442.691 75.8193 442.691 75.9414C442.765 75.9414 442.789 75.9658 442.789 76.0391L442.691 76.5273C442.813 76.5273 442.887 76.6006 442.887 76.7227V76.918C442.618 77.5283 442.374 77.8701 442.105 77.9922H441.324L440.738 78.0898C440.47 77.9678 439.933 77.8945 439.176 77.8945H438.59C438.59 77.7969 438.517 77.6748 438.395 77.5039L437.906 77.6016C437.442 77.6016 437.223 77.3086 437.223 76.7227C437.296 76.7227 437.32 76.6982 437.32 76.625V76.5273C437.32 76.3564 437.247 76.1611 437.125 75.9414C437.247 75.624 437.32 75.2578 437.32 74.8672C437.638 74.501 437.882 73.7441 438.004 72.6211C437.906 72.6211 437.809 72.499 437.711 72.2305C437.833 71.5713 438.004 70.9854 438.199 70.4727C438.126 70.3506 438.102 70.2285 438.102 70.082L438.395 63.3438V63.2461L438.297 62.7578C438.541 62.6357 438.712 62.4404 438.785 62.1719C438.785 62.001 438.712 61.8057 438.59 61.5859C438.81 60.9268 439.029 60.6094 439.273 60.6094C439.2 60.4873 439.151 60.0967 439.078 59.4375V56.4102L441.324 47.0352L441.227 46.4492V46.2539C441.422 45.9365 441.617 44.1543 441.812 40.8828C441.812 40.6631 441.788 40.3701 441.715 40.0039C441.837 39.6865 441.91 39.4424 441.91 39.3203H442.105Z" fill="#214440"/>
</svg>
